<svg width="667" height="667" viewBox="0 0 667 667" fill="none" xmlns="http://www.w3.org/2000/svg">
<mask id="mask0_297_19426" style="mask-type:luminance" maskUnits="userSpaceOnUse" x="0" y="0" width="667" height="667">
<path d="M0 6.00815e-05H666.667V666.667H0V6.00815e-05Z" fill="white"/>
</mask>
<g mask="url(#mask0_297_19426)">
<path d="M115.475 347.659C-4.84145 417.125 -4.83878 529.75 115.481 599.214C235.801 668.679 430.876 668.679 551.192 599.214C671.509 529.75 671.505 417.125 551.185 347.659C430.865 278.194 235.791 278.194 115.475 347.659Z" fill="#F5F5F5"/>
</g>
<mask id="mask1_297_19426" style="mask-type:luminance" maskUnits="userSpaceOnUse" x="0" y="0" width="667" height="667">
<path d="M0 6.00815e-05H666.667V666.667H0V6.00815e-05Z" fill="white"/>
</mask>
<g mask="url(#mask1_297_19426)">
<path d="M76.7176 68.0207H91.7883C91.7136 67.5487 91.6603 67.0701 91.6603 66.5794V63.3047C91.6603 57.4781 97.1149 52.7541 103.844 52.7541C106.568 52.7541 109.076 53.5381 111.106 54.8474C112.207 47.0434 119.872 40.9941 129.182 40.9941C139.248 40.9941 147.408 48.0607 147.408 56.7794V61.6781C147.408 63.9354 146.852 66.0781 145.866 68.0207H158.383C162.116 68.0207 165.142 70.6407 165.142 73.8727C165.142 77.1061 162.116 79.7261 158.383 79.7261H76.7176C72.9856 79.7261 69.9589 77.1061 69.9589 73.8727C69.9589 70.6407 72.9856 68.0207 76.7176 68.0207Z" fill="#F5F5F5"/>
<path d="M100.576 126.801H89.7375C89.7908 126.461 89.8281 126.117 89.8281 125.763V123.409C89.8281 119.218 85.9055 115.821 81.0655 115.821C79.1055 115.821 77.3028 116.385 75.8428 117.325C75.0495 111.713 69.5375 107.362 62.8415 107.362C55.6015 107.362 49.7321 112.445 49.7321 118.715V122.238C49.7321 123.862 50.1321 125.403 50.8415 126.801H41.8388C39.1535 126.801 36.9775 128.686 36.9775 131.01C36.9775 133.335 39.1535 135.219 41.8388 135.219H100.576C103.26 135.219 105.436 133.335 105.436 131.01C105.436 128.686 103.26 126.801 100.576 126.801Z" fill="#F5F5F5"/>
<path d="M535.551 147.663H550.621C550.545 147.191 550.493 146.712 550.493 146.221V142.947C550.493 137.12 555.948 132.396 562.677 132.396C565.401 132.396 567.909 133.18 569.939 134.489C571.04 126.684 578.705 120.636 588.015 120.636C598.081 120.636 606.241 127.703 606.241 136.421V141.32C606.241 143.577 605.685 145.72 604.699 147.663H617.216C620.949 147.663 623.975 150.283 623.975 153.515C623.975 156.748 620.949 159.368 617.216 159.368H535.551C531.819 159.368 528.792 156.748 528.792 153.515C528.792 150.283 531.819 147.663 535.551 147.663Z" fill="#F5F5F5"/>
<path d="M616.931 83.659H606.093C606.146 83.319 606.183 82.975 606.183 82.6216V80.267C606.183 76.0763 602.261 72.679 597.421 72.679C595.461 72.679 593.658 73.243 592.198 74.183C591.405 68.571 585.893 64.2203 579.197 64.2203C571.957 64.2203 566.087 69.303 566.087 75.5736V79.0963C566.087 80.7203 566.487 82.2616 567.197 83.659H558.194C555.509 83.659 553.333 85.5443 553.333 87.8683C553.333 90.1936 555.509 92.0776 558.194 92.0776H616.931C619.615 92.0776 621.791 90.1936 621.791 87.8683C621.791 85.5443 619.615 83.659 616.931 83.659Z" fill="#F5F5F5"/>
<path d="M492.876 71.5976H484.001C484.073 71.143 484.123 70.6816 484.123 70.2096V67.0563C484.123 61.4443 478.871 56.895 472.391 56.895C469.767 56.895 467.352 57.651 465.397 58.911C464.336 51.395 456.955 45.5696 447.989 45.571C438.296 45.571 430.437 52.3763 430.437 60.771V65.4883C430.437 67.663 430.973 69.727 431.923 71.5976H425.753C422.159 71.5976 419.245 74.1216 419.245 77.2336C419.245 80.347 422.159 82.8696 425.753 82.8696H492.876C496.471 82.8696 499.384 80.347 499.384 77.2336C499.384 74.1216 496.471 71.5976 492.876 71.5976Z" fill="#F5F5F5"/>
</g>
<mask id="mask2_297_19426" style="mask-type:luminance" maskUnits="userSpaceOnUse" x="0" y="0" width="667" height="667">
<path d="M0 6.00815e-05H666.667V666.667H0V6.00815e-05Z" fill="white"/>
</mask>
<g mask="url(#mask2_297_19426)">
<path d="M45.5636 465.033C45.9582 463.464 45.8142 460.634 43.1876 458.444C40.5596 456.253 37.0022 455.354 36.6542 455.57C36.3062 455.786 36.6596 459.41 39.3956 462.336C42.0742 465.198 44.5756 464.97 45.5636 465.033Z" fill="#2772F0"/>
<path d="M47.1136 473.37C46.7456 471.794 45.3229 469.342 41.9829 468.589C38.6416 467.834 35.0656 468.654 34.8536 469.005C34.6429 469.356 36.6176 472.418 40.3909 473.777C44.0856 475.106 46.2069 473.764 47.1136 473.37Z" fill="#2772F0"/>
<path d="M53.5256 474.632C55.0203 473.998 57.1949 472.177 57.3616 468.766C57.5283 465.356 56.4109 462.2 56.0283 462.053C55.6456 461.906 52.6189 464.597 51.7536 468.084C50.8109 471.885 52.9803 473.809 53.5256 474.632Z" fill="#2772F0"/>
<path d="M57.2219 503.451C57.9725 500.473 57.7539 497.275 57.4419 494.247C57.1472 491.402 56.6005 488.585 55.8379 485.827C54.2592 480.113 51.8925 474.525 48.8512 469.429C46.9125 466.181 44.7205 462.801 41.8192 460.326C41.7565 460.273 41.5939 460.394 41.6472 460.459C44.5925 464.097 45.7072 466.162 47.4139 469.153C48.8939 471.749 50.3472 474.429 51.5552 477.518C53.6792 482.945 54.8272 487.478 55.5859 492.839C56.0792 496.322 55.9899 499.801 56.0752 503.306C56.0939 504.058 57.0325 504.202 57.2219 503.451Z" fill="#00235D"/>
<path d="M52.8467 477.32C53.576 475.932 54.0867 474.492 54.4907 472.982C54.864 471.584 55.128 470.023 54.94 468.579C54.9133 468.375 54.7533 468.644 54.732 468.774C54.5053 470.106 54.1827 471.326 53.804 472.628C53.412 473.974 52.7507 475.244 52 476.426C51.8107 476.723 51.7973 477.23 52.0573 477.494C52.312 477.75 52.6907 477.616 52.8467 477.32Z" fill="#00235D"/>
<path d="M52.5083 476.852C51.1243 475.172 49.5883 474.181 47.3829 472.912C46.4509 472.376 45.6976 472.041 44.7003 471.642C43.7016 471.245 41.9309 470.805 41.2789 470.846C41.2323 470.849 40.9589 470.945 41.0443 470.969C41.9589 471.237 43.3096 471.761 44.2643 472.18C45.4376 472.693 46.1323 473.076 47.0309 473.65C49.1069 474.98 50.4163 476.017 51.9389 477.502C52.2523 477.806 52.7469 477.142 52.5083 476.852Z" fill="#00235D"/>
<path d="M51.8315 485.119C51.8021 483.501 50.9235 480.809 47.8141 479.375C44.7048 477.943 41.0355 478.001 40.7555 478.299C40.4755 478.599 41.7648 482.006 45.1715 484.118C48.5061 486.186 50.8621 485.315 51.8315 485.119Z" fill="#2772F0"/>
<path d="M56.3791 489.646C55.3764 487.714 54.0817 486.427 52.1897 484.727C51.3911 484.008 50.7257 483.524 49.8324 482.927C48.9404 482.33 47.3004 481.532 46.6524 481.438C46.6071 481.43 46.3204 481.467 46.3977 481.508C47.2364 481.96 48.4484 482.754 49.2951 483.362C50.3337 484.108 50.9337 484.627 51.6911 485.376C53.4431 487.107 54.5071 488.394 55.6857 490.163C55.9284 490.527 56.5524 489.979 56.3791 489.646Z" fill="#00235D"/>
<path d="M67.4981 449.277C66.7715 447.675 66.3768 444.625 68.7595 441.775C71.1408 438.927 74.7701 437.281 75.1835 437.445C75.5981 437.609 75.9221 441.549 73.5661 445.203C71.2595 448.781 68.5408 449.019 67.4981 449.277Z" fill="#2772F0"/>
<path d="M67.46 458.486C67.5467 456.73 68.592 453.837 72.016 452.386C75.4387 450.936 79.4213 451.121 79.7147 451.456C80.008 451.79 78.4933 455.445 74.724 457.624C71.0333 459.757 68.5067 458.732 67.46 458.486Z" fill="#2772F0"/>
<path d="M60.8519 461.071C59.1319 460.682 56.4545 459.155 55.6145 455.543C54.7732 451.93 55.3559 448.34 55.7359 448.111C56.1172 447.88 59.8732 450.171 61.4745 453.731C63.2199 457.611 61.2759 460.086 60.8519 461.071Z" fill="#2772F0"/>
<path d="M62.4951 492.585C61.1151 489.546 60.7271 486.088 60.4737 482.79C60.2364 479.692 60.2737 476.576 60.5537 473.482C61.1324 467.07 62.5764 460.642 64.8377 454.609C66.2791 450.764 67.9657 446.728 70.5871 443.524C70.6431 443.456 70.8404 443.553 70.7964 443.633C68.3551 448.089 67.5631 450.51 66.3204 454.037C65.2431 457.096 64.2097 460.241 63.5177 463.776C62.3017 469.985 61.9537 475.052 62.1831 480.928C62.3324 484.745 63.1031 488.446 63.6924 492.209C63.8177 493.016 62.8431 493.35 62.4951 492.585Z" fill="#00235D"/>
<path d="M62.0993 463.814C61.05 462.471 60.2247 461.031 59.4993 459.494C58.83 458.073 58.2447 456.454 58.1647 454.877C58.154 454.651 58.378 454.91 58.426 455.043C58.926 456.425 59.5087 457.666 60.166 458.985C60.8447 460.347 61.7993 461.577 62.83 462.694C63.09 462.975 63.2033 463.515 62.9753 463.847C62.7553 464.17 62.3233 464.101 62.0993 463.814Z" fill="#00235D"/>
<path d="M62.37 463.247C63.5233 461.183 64.9727 459.83 67.0833 458.047C67.9753 457.295 68.7153 456.793 69.7047 456.174C70.694 455.555 72.5007 454.745 73.206 454.663C73.2567 454.657 73.566 454.706 73.4807 454.749C72.5553 455.211 71.2127 456.033 70.274 456.663C69.1193 457.438 68.4513 457.981 67.6033 458.77C65.6433 460.59 64.4447 461.951 63.1047 463.833C62.83 464.218 62.1713 463.603 62.37 463.247Z" fill="#00235D"/>
<path d="M64.698 471.953C64.4153 470.218 64.8313 467.17 67.8767 465.04C70.922 462.909 74.8553 462.262 75.2113 462.528C75.5687 462.793 74.8527 466.684 71.622 469.598C68.4593 472.452 65.7727 471.976 64.698 471.953Z" fill="#2772F0"/>
<path d="M60.7164 477.668C61.4124 475.411 62.5471 473.785 64.2377 471.603C64.9524 470.681 65.5711 470.035 66.4097 469.225C67.2471 468.415 68.8444 467.245 69.5177 467.019C69.5657 467.003 69.8791 466.987 69.8044 467.045C68.9951 467.691 67.8551 468.773 67.0684 469.585C66.1017 470.583 65.5617 471.253 64.8977 472.2C63.3604 474.389 62.4737 475.969 61.5577 478.087C61.3684 478.523 60.5964 478.057 60.7164 477.668Z" fill="#00235D"/>
<path d="M622.776 465.033C622.381 463.464 622.525 460.634 625.152 458.444C627.78 456.253 631.337 455.354 631.685 455.57C632.033 455.786 631.68 459.41 628.944 462.336C626.265 465.198 623.764 464.97 622.776 465.033Z" fill="#2772F0"/>
<path d="M621.226 473.37C621.594 471.794 623.016 469.342 626.356 468.589C629.696 467.834 633.274 468.654 633.484 469.005C633.695 469.356 631.722 472.418 627.948 473.777C624.254 475.106 622.134 473.764 621.226 473.37Z" fill="#2772F0"/>
<path d="M614.814 474.632C613.32 473.998 611.144 472.177 610.978 468.766C610.811 465.356 611.928 462.2 612.311 462.053C612.694 461.906 615.72 464.597 616.586 468.084C617.528 471.885 615.359 473.809 614.814 474.632Z" fill="#2772F0"/>
<path d="M611.117 503.451C610.367 500.473 610.585 497.275 610.897 494.247C611.192 491.402 611.739 488.585 612.501 485.827C614.081 480.113 616.447 474.525 619.488 469.429C621.427 466.181 623.619 462.801 626.52 460.326C626.583 460.273 626.745 460.394 626.692 460.459C623.747 464.097 622.632 466.162 620.927 469.153C619.445 471.749 617.992 474.429 616.784 477.518C614.66 482.945 613.512 487.478 612.753 492.839C612.26 496.322 612.349 499.801 612.264 503.306C612.245 504.058 611.307 504.202 611.117 503.451Z" fill="#00235D"/>
<path d="M615.493 477.32C614.763 475.932 614.253 474.492 613.849 472.982C613.475 471.584 613.211 470.023 613.399 468.579C613.426 468.375 613.586 468.644 613.607 468.774C613.834 470.106 614.158 471.326 614.535 472.628C614.927 473.974 615.589 475.244 616.339 476.426C616.529 476.723 616.542 477.23 616.282 477.494C616.027 477.75 615.649 477.616 615.493 477.32Z" fill="#00235D"/>
<path d="M615.831 476.852C617.215 475.172 618.751 474.181 620.956 472.912C621.888 472.376 622.642 472.041 623.639 471.642C624.638 471.245 626.408 470.805 627.06 470.846C627.107 470.849 627.38 470.945 627.295 470.969C626.38 471.237 625.03 471.761 624.075 472.18C622.902 472.693 622.207 473.076 621.308 473.65C619.234 474.98 617.924 476.017 616.4 477.502C616.087 477.806 615.592 477.142 615.831 476.852Z" fill="#00235D"/>
<path d="M616.508 485.119C616.537 483.501 617.416 480.809 620.525 479.375C623.634 477.943 627.304 478.001 627.584 478.299C627.864 478.599 626.574 482.006 623.168 484.118C619.833 486.186 617.477 485.315 616.508 485.119Z" fill="#2772F0"/>
<path d="M611.96 489.646C612.963 487.714 614.258 486.427 616.15 484.727C616.948 484.008 617.614 483.524 618.507 482.927C619.399 482.33 621.039 481.532 621.687 481.438C621.732 481.43 622.019 481.467 621.942 481.508C621.103 481.96 619.891 482.754 619.044 483.362C618.006 484.108 617.406 484.627 616.647 485.376C614.896 487.107 613.832 488.394 612.654 490.163C612.411 490.527 611.787 489.979 611.96 489.646Z" fill="#00235D"/>
<path d="M603.508 449.277C604.234 447.675 604.629 444.625 602.248 441.775C599.865 438.927 596.236 437.281 595.822 437.445C595.409 437.609 595.084 441.549 597.44 445.203C599.746 448.781 602.465 449.019 603.508 449.277Z" fill="#2772F0"/>
<path d="M603.546 458.486C603.459 456.73 602.414 453.837 598.991 452.386C595.567 450.936 591.585 451.121 591.291 451.456C590.998 451.79 592.513 455.445 596.282 457.624C599.973 459.757 602.501 458.732 603.546 458.486Z" fill="#2772F0"/>
<path d="M610.154 461.071C611.874 460.682 614.552 459.155 615.392 455.543C616.232 451.93 615.65 448.34 615.27 448.111C614.889 447.88 611.133 450.171 609.532 453.731C607.786 457.611 609.73 460.086 610.154 461.071Z" fill="#2772F0"/>
<path d="M608.511 492.585C609.891 489.546 610.279 486.088 610.532 482.79C610.77 479.692 610.732 476.576 610.452 473.482C609.874 467.07 608.43 460.642 606.168 454.609C604.727 450.764 603.04 446.728 600.419 443.524C600.363 443.456 600.166 443.553 600.21 443.633C602.651 448.089 603.443 450.51 604.684 454.037C605.763 457.096 606.796 460.241 607.488 463.776C608.704 469.985 609.052 475.052 608.823 480.928C608.674 484.745 607.903 488.446 607.314 492.209C607.188 493.016 608.163 493.35 608.511 492.585Z" fill="#00235D"/>
<path d="M608.907 463.814C609.956 462.471 610.781 461.031 611.507 459.494C612.176 458.073 612.761 456.454 612.841 454.877C612.852 454.651 612.628 454.91 612.58 455.043C612.08 456.425 611.497 457.666 610.84 458.985C610.161 460.347 609.207 461.577 608.176 462.694C607.916 462.975 607.803 463.515 608.029 463.847C608.252 464.17 608.683 464.101 608.907 463.814Z" fill="#00235D"/>
<path d="M608.636 463.247C607.483 461.183 606.033 459.83 603.923 458.047C603.031 457.295 602.291 456.793 601.301 456.174C600.312 455.555 598.505 454.745 597.8 454.663C597.749 454.657 597.44 454.706 597.525 454.749C598.451 455.211 599.793 456.033 600.732 456.663C601.887 457.438 602.555 457.981 603.403 458.77C605.363 460.59 606.561 461.951 607.901 463.833C608.176 464.218 608.835 463.603 608.636 463.247Z" fill="#00235D"/>
<path d="M606.308 471.953C606.591 470.218 606.175 467.17 603.129 465.04C600.084 462.909 596.151 462.262 595.795 462.528C595.437 462.793 596.155 466.684 599.385 469.598C602.547 472.452 605.233 471.976 606.308 471.953Z" fill="#2772F0"/>
<path d="M610.29 477.668C609.594 475.411 608.459 473.785 606.768 471.603C606.054 470.681 605.435 470.035 604.596 469.225C603.759 468.415 602.162 467.245 601.488 467.019C601.44 467.003 601.127 466.987 601.202 467.045C602.01 467.691 603.151 468.773 603.938 469.585C604.904 470.583 605.444 471.253 606.108 472.2C607.646 474.389 608.532 475.969 609.448 478.087C609.638 478.523 610.41 478.057 610.29 477.668Z" fill="#00235D"/>
</g>
<mask id="mask3_297_19426" style="mask-type:luminance" maskUnits="userSpaceOnUse" x="0" y="0" width="667" height="667">
<path d="M0 6.00815e-05H666.667V666.667H0V6.00815e-05Z" fill="white"/>
</mask>
<g mask="url(#mask3_297_19426)">
<path d="M372.743 548.361C400.711 564.507 400.71 590.687 372.743 606.834C344.775 622.982 299.431 622.982 271.463 606.834C243.495 590.687 243.495 564.507 271.463 548.361C299.431 532.214 344.775 532.214 372.743 548.361Z" fill="#E1E1E1"/>
<path d="M596.56 481.797C624.528 497.944 624.528 524.124 596.56 540.271C568.592 556.419 523.248 556.419 495.28 540.271C467.312 524.124 467.312 497.944 495.28 481.797C523.248 465.651 568.592 465.651 596.56 481.797Z" fill="#E1E1E1"/>
<path d="M172.123 481.797C200.091 497.944 200.091 524.124 172.123 540.271C144.155 556.419 98.8109 556.419 70.8429 540.271C42.8749 524.124 42.8749 497.944 70.8429 481.797C98.8109 465.651 144.155 465.651 172.123 481.797Z" fill="#E1E1E1"/>
</g>
<mask id="mask4_297_19426" style="mask-type:luminance" maskUnits="userSpaceOnUse" x="0" y="0" width="667" height="667">
<path d="M0 6.00815e-05H666.667V666.667H0V6.00815e-05Z" fill="white"/>
</mask>
<g mask="url(#mask4_297_19426)">
<path d="M575.547 528.04C576.006 532.568 576.786 535.673 578.565 538.267C580.342 540.861 583.526 541.568 586.685 540.66C589.843 539.751 593.187 537.316 594.601 533.548C595.795 530.359 595.779 526.892 594.883 522.712L575.547 528.04Z" fill="#091B3D"/>
<path d="M588.521 497.902C589.255 500.917 589.617 502.979 590.618 507.114C592.171 513.525 593.831 516.245 594.775 521.577C595.854 527.669 595.226 530.629 592.838 534.243C590.455 537.853 583.031 541.993 578.933 536.846C575.591 532.65 575.265 527.858 575.305 521.73C575.346 515.393 574.714 511.033 574.251 506.245C574.249 506.214 574.245 506.182 574.242 506.15C574.079 504.513 573.817 501.281 573.577 499.654C573.047 496.07 575.499 495.671 576.449 495.154C577.779 494.43 579.211 493.875 580.707 493.611C582.225 493.343 583.779 493.53 585.297 493.818C587.011 494.143 587.818 495.015 588.521 497.902Z" fill="#00235D"/>
<path d="M487.09 508.991C486.805 509.001 486.465 512.042 488.05 513.282C489.881 514.714 495.197 516.995 502.101 515.921C509.005 514.846 512.696 512.665 515.402 510.343C518.109 508.021 521.901 504.746 525.017 503.985C527.91 503.277 531.704 501.689 532.61 500.793C533.516 499.897 533.273 496.042 533.273 496.042L487.09 508.991Z" fill="#091B3D"/>
<path d="M529.994 483.614C530.319 483.618 530.635 483.667 530.917 483.826C531.682 484.254 531.855 485.258 531.946 486.13C532.025 486.881 532.014 487.693 532.286 488.402C533.182 490.749 533.79 494.898 533.182 497.374C532.701 499.333 527.483 501.101 524.482 502.306C521.418 503.538 517.903 505.993 514.833 508.589C511.653 511.277 504.879 514.083 500.366 514.283C493.474 514.59 488.955 512.922 487.506 510.574C485.713 507.669 487.001 505.915 494.818 502.134C496.298 501.419 501.478 498.253 503.241 497.107C505.105 495.898 506.885 494.562 508.518 493.074C509.343 492.321 510.133 491.529 510.869 490.693C511.979 489.429 513.379 488.426 514.674 487.347C515.614 486.565 516.561 485.778 517.625 485.173C519.341 484.195 521.298 483.738 523.257 483.605C525.258 483.47 527.157 483.87 529.158 483.67C529.433 483.642 529.717 483.611 529.994 483.614Z" fill="#00235D"/>
<path d="M587.712 496.316C586.173 483.104 587.234 468.467 585.248 447.82C584.93 442.52 584.501 436.847 583.926 431.813C581.994 414.88 579.044 409.184 578.658 405.917C578.658 405.917 578.481 372.567 575.82 335.452C574.566 317.992 569.098 312.911 564.524 303.803L512.54 305.843C507.897 328.967 508.962 381.152 510.089 404.744C510.662 416.771 513.804 459.945 513.966 479.523C514.013 485.264 512.856 487.335 510.81 489.631C506.529 494.437 501.024 497.865 495.782 501.621C494.338 504.765 501.661 506.585 507.773 503.237C512.944 500.404 518.886 496.939 520.65 495.567C525.12 492.093 529.934 489.747 530.836 484.823C531.202 482.821 540.596 436.876 540.777 426.861C540.933 418.251 539.256 403.717 539.256 403.717L543.522 367.097C543.522 367.097 549.237 394.996 552.642 409.737C556.046 424.471 559.802 441.979 563.685 456.556C567.528 473.375 572.721 489.667 573.868 498.117C574.192 500.132 577.378 519.917 578.546 524.431C579.713 528.944 590.01 528.645 590.352 520.787C590.578 515.556 588.001 498.803 587.712 496.316Z" fill="#C76668"/>
<path d="M565.992 304.122C572.325 314.276 577.056 322.592 578.911 353.475C580.767 384.356 580.591 403.128 580.868 406.85C581.145 410.571 583.125 413.295 585.847 431.572C588.569 449.851 587.236 472.1 587.236 472.1C587.236 472.1 585.488 475.51 578.235 476.435C571.543 477.288 568.119 474.992 568.119 474.992C568.119 474.992 559.016 441.13 556.02 428.551C553.388 417.503 543.948 374.711 543.948 374.711L540.757 404.378C540.757 404.378 543.5 415.183 541.331 431.396C539.175 447.503 535.553 463.504 535.553 463.504C535.553 463.504 532.207 464.655 525.117 464.86C519.371 465.026 512.996 462.618 512.996 462.618C512.996 462.618 509.563 415.927 508.82 397.68C508.077 379.432 506.625 328.736 512.391 306.654L565.992 304.122Z" fill="#9ED9EB"/>
<path d="M557.712 410.969C561.921 411.602 566.112 411.788 575.192 409.673C570.809 408.83 557.712 410.969 557.712 410.969ZM574.284 407.008C574.284 407.008 570.444 403.44 563.38 404.554C556.316 405.669 553.589 409.814 553.589 409.814C561.057 406.201 574.284 407.008 574.284 407.008Z" fill="#017FA5"/>
<path d="M508.941 400.421C508.972 401.062 509.004 401.726 509.039 402.413C510.821 402.22 518.911 401.444 527.093 402.298C524.476 400.98 515.044 399.517 508.941 400.421Z" fill="#017FA5"/>
<path d="M509.174 404.998C509.208 405.603 509.24 406.219 509.276 406.85C510.71 406.714 519.145 405.887 522.845 404.766C516.678 404.554 510.541 404.91 509.174 404.998Z" fill="#017FA5"/>
<path d="M579.006 413.191C576.806 404.73 576.773 388.447 576.226 374.309C576.061 370.037 575.891 365.619 575.657 360.927C574.741 342.523 572.431 321.971 562.237 309.071L561.479 309.629C568.333 318.302 571.567 330.557 573.222 343.271C563.591 342.435 561.121 333.393 557.753 320.942C557.293 319.241 556.817 317.479 556.305 315.674L555.386 315.918C555.898 317.721 556.373 319.478 556.833 321.175C560.194 333.601 562.862 343.442 573.338 344.218C574.031 349.818 574.434 355.49 574.707 360.974C574.941 365.661 575.111 370.075 575.277 374.346C575.823 388.538 575.858 404.862 578.083 413.417C578.331 414.371 578.599 415.37 578.881 416.421C581.81 427.357 585.234 445.591 584.559 474.489C584.923 474.279 585.249 474.07 585.527 473.865C586.126 445.237 582.722 427.094 579.802 416.189C579.521 415.141 579.254 414.143 579.006 413.191Z" fill="#017FA5"/>
<path d="M543.948 374.711L536.527 339.866C536.527 339.866 523.839 339.508 516.517 332.703C518.101 338.72 528.359 343.426 532.964 344.295L534.371 350.427C534.28 353.722 534.176 357.18 534.069 360.752C533.477 380.438 533.055 400.751 534.093 405.331C536.107 414.214 535.569 422.755 534.415 434.371C533.375 444.848 531.573 457.838 530.448 464.48C530.781 464.442 531.1 464.4 531.4 464.359C532.535 457.776 534.021 446.199 535.489 434.42C536.969 422.54 537.352 414.419 535.013 405.096C533.903 400.668 534.457 379.483 535.02 360.776C535.088 358.507 535.155 356.286 535.217 354.119L540.172 375.711L540.757 404.378L543.948 374.711Z" fill="#017FA5"/>
<path d="M446.144 253.833C445.544 251.513 445.164 249.137 445.012 246.746C444.932 245.478 444.9 244.198 444.964 242.93C445.047 241.294 445.387 241.99 446.587 241.476C446.928 241.329 447.082 240.925 447.106 240.556C447.13 240.185 447.06 239.81 447.119 239.445C447.206 238.901 447.592 238.416 448.103 238.21C448.376 238.1 448.686 238.061 448.916 237.877C449.416 237.477 449.259 236.678 449.52 236.096C449.847 235.366 450.842 235.11 451.575 235.426C452.308 235.742 452.782 236.489 452.984 237.261C453.026 237.42 453.062 237.586 453.167 237.712C453.36 237.941 453.706 237.94 454.003 237.98C454.932 238.102 455.712 238.785 456.19 239.592C457.386 241.622 457.166 244.198 457.691 246.436C458.056 247.994 458.707 249.404 459.659 250.682C459.802 250.876 459.998 251.09 460.235 251.05C460.492 251.006 460.598 250.696 460.634 250.437C460.971 247.985 459.74 245.4 460.58 243.072C460.872 242.261 461.398 241.556 461.963 240.906C462.083 240.768 462.212 240.628 462.382 240.558C462.77 240.402 463.218 240.698 463.392 241.078C463.679 241.704 463.632 242.624 463.776 243.312C464.176 245.212 464.635 246.96 465.351 248.764C465.966 250.314 466.367 251.929 466.623 253.576C466.834 254.93 466.496 256.794 467.032 258.048C467.16 258.346 467.382 258.593 467.598 258.833C469.483 260.921 479.618 269.433 482.683 271.744C484.884 273.402 487.096 275.049 489.326 276.668C489.326 276.668 497.616 266.354 502.298 261.145C513.134 249.085 514.786 246.784 524.167 247.609L515.747 277.23C515.747 277.23 506.831 285.705 497.392 294.025C491.843 298.917 487.822 299.656 479.742 291.276C475.059 286.418 464.927 275.114 462.648 272.661C460.554 270.405 457.92 268.925 455.624 266.948C452.295 264.08 448.528 261.056 447.046 256.806C446.704 255.828 446.404 254.836 446.144 253.833Z" fill="#C76668"/>
<path d="M524.405 247.138C518.332 247.291 514.055 246.938 508.387 253.332C504.152 258.11 502.563 260.103 502.563 260.103C502.563 260.103 501.435 266.262 505.697 272.883C508.819 277.731 512.916 280.406 512.916 280.406L517.271 276.479L524.405 247.138Z" fill="#091B3D"/>
<path d="M574.213 319.953C570.496 308.487 566.705 303.041 567.332 297.693C568.295 289.463 571.639 279.105 571.873 273.415C572.708 253.201 568.799 251.178 565.205 249.627C565.205 249.627 558.731 248.226 555.181 247.382C553.048 246.874 548.799 246.291 548.799 246.291C545.529 246.179 538.893 246.278 536.195 246.553C534.865 246.687 532.473 246.578 532.473 246.578C532.473 246.578 524.201 247.151 524.195 247.157C524.195 247.157 517.969 252.37 511.787 260.739C505.483 269.273 503.064 279.443 512.192 287.021C512.192 287.021 512.621 294.989 512.543 298.557C512.172 303.679 510.473 312.885 509.66 323.487C523.687 336.463 558.44 333.421 574.213 319.953Z" fill="#091B3D"/>
<path d="M541.417 272.906L526.213 259.787L537.79 199.043L515.315 179.651L497.806 185.751L489.701 228.282L472.715 213.626L533.945 114.843L509.785 93.9964L492.275 100.096L426.795 205.116L422.322 228.592L480.134 278.479L473.435 313.631L495.91 333.023L513.418 326.923L516.646 309.983L517.813 310.99L535.321 304.89L541.417 272.906Z" fill="#2772F0"/>
<mask id="mask5_297_19426" style="mask-type:luminance" maskUnits="userSpaceOnUse" x="422" y="93" width="120" height="241">
<path d="M422.321 93.996H541.416V333.023H422.321V93.996Z" fill="white"/>
</mask>
<g mask="url(#mask5_297_19426)">
<g opacity="0.300003">
<path d="M541.417 272.906L526.213 259.787L537.79 199.043L515.315 179.651L497.806 185.751L489.701 228.282L472.715 213.626L533.945 114.843L509.785 93.9964L492.275 100.096L426.795 205.116L422.322 228.592L480.134 278.479L473.435 313.631L495.91 333.023L513.418 326.923L516.646 309.983L517.813 310.99L535.321 304.89L541.417 272.906Z" fill="black"/>
</g>
</g>
<path d="M508.704 265.887L520.28 205.143L497.807 185.751L486.231 246.495L455.207 219.726L516.436 120.943L492.275 100.096L426.795 205.116L422.322 228.592L480.135 278.479L473.435 313.63L495.91 333.023L502.608 297.871L517.812 310.99L523.908 279.006L508.704 265.887Z" fill="#2772F0"/>
<mask id="mask6_297_19426" style="mask-type:luminance" maskUnits="userSpaceOnUse" x="422" y="100" width="102" height="234">
<path d="M422.321 100.097H523.908V333.023H422.321V100.097Z" fill="white"/>
</mask>
<g mask="url(#mask6_297_19426)">
<g opacity="0.300003">
<path d="M508.704 265.887L520.28 205.143L497.807 185.751L486.231 246.495L455.207 219.726L516.436 120.943L492.275 100.096L426.795 205.116L422.322 228.592L480.135 278.479L473.435 313.63L495.91 333.023L502.608 297.871L517.812 310.99L523.908 279.006L508.704 265.887Z" fill="white"/>
</g>
</g>
<path d="M492.276 100.097L516.436 120.943L533.944 114.843L509.784 93.9967L492.276 100.097Z" fill="#2772F0"/>
<mask id="mask7_297_19426" style="mask-type:luminance" maskUnits="userSpaceOnUse" x="492" y="93" width="42" height="28">
<path d="M492.276 93.9961H533.944V120.944H492.276V93.9961Z" fill="white"/>
</mask>
<g mask="url(#mask7_297_19426)">
<g opacity="0.5">
<path d="M492.276 100.097L516.436 120.943L533.944 114.843L509.784 93.9967L492.276 100.097Z" fill="white"/>
</g>
</g>
<path d="M497.807 185.752L515.315 179.652L537.789 199.044L520.28 205.144L497.807 185.752Z" fill="#2772F0"/>
<mask id="mask8_297_19426" style="mask-type:luminance" maskUnits="userSpaceOnUse" x="497" y="179" width="41" height="27">
<path d="M497.807 179.651H537.789V205.144H497.807V179.651Z" fill="white"/>
</mask>
<g mask="url(#mask8_297_19426)">
<g opacity="0.5">
<path d="M497.807 185.752L515.315 179.652L537.789 199.044L520.28 205.144L497.807 185.752Z" fill="white"/>
</g>
</g>
<path d="M508.704 265.887L526.214 259.787L541.416 272.906L523.908 279.006L508.704 265.887Z" fill="#2772F0"/>
<mask id="mask9_297_19426" style="mask-type:luminance" maskUnits="userSpaceOnUse" x="508" y="259" width="34" height="21">
<path d="M508.704 259.787H541.416V279.005H508.704V259.787Z" fill="white"/>
</mask>
<g mask="url(#mask9_297_19426)">
<g opacity="0.5">
<path d="M508.704 265.887L526.214 259.787L541.416 272.906L523.908 279.006L508.704 265.887Z" fill="white"/>
</g>
</g>
<path d="M455.207 219.726L472.716 213.626L489.7 228.282L486.23 246.495L455.207 219.726Z" fill="#2772F0"/>
<mask id="mask10_297_19426" style="mask-type:luminance" maskUnits="userSpaceOnUse" x="455" y="213" width="35" height="34">
<path d="M455.207 213.625H489.701V246.495H455.207V213.625Z" fill="white"/>
</mask>
<g mask="url(#mask10_297_19426)">
<g opacity="0.5">
<path d="M455.207 219.726L472.716 213.626L489.7 228.282L486.23 246.495L455.207 219.726Z" fill="white"/>
</g>
</g>
<path d="M563.956 222.999C565.342 222.965 566.721 222.413 567.717 221.443C569.258 219.941 569.932 217.546 571.845 216.559C573.192 215.866 574.816 216.063 576.278 215.67C578.546 215.058 580.296 212.877 580.401 210.53C580.509 208.101 579.036 205.714 579.542 203.335C579.864 201.83 580.932 200.601 581.506 199.173C582.669 196.279 581.465 192.633 578.808 191.002C577.606 190.265 576.201 189.925 574.964 189.247C572.369 187.826 572.776 184.727 570.609 182.837C568.746 181.211 566.02 180.509 563.64 181.274C561.982 181.807 560.376 182.959 558.67 182.607C557.713 182.41 556.924 181.763 556.062 181.301C552.941 179.619 548.624 180.689 546.646 183.63C546.037 184.538 545.588 185.63 544.648 186.187C542.857 187.247 542.573 188.498 541.733 190.402C540.893 192.307 540.777 194.666 541.976 196.369C542.834 197.59 544.278 198.371 544.909 199.725C546.089 202.253 543.88 205.027 543.622 207.805C543.104 213.409 548.758 212.983 551.278 216.189C552.096 217.23 552.597 218.481 553.285 219.611C554.677 221.902 557.614 220.901 559.96 221.837C560.806 222.174 561.616 222.613 562.498 222.838C562.974 222.959 563.465 223.011 563.956 222.999Z" fill="#091B3D"/>
<path d="M557.558 190.488C558.979 191.412 560.299 192.567 561.102 194.06C561.41 194.633 561.641 195.307 561.449 195.929C561.102 197.056 559.666 197.357 558.487 197.392C554.046 197.524 548.973 195.804 547.351 191.175C545.282 185.269 555.513 189.159 557.558 190.488Z" fill="#2772F0"/>
<path d="M551.072 236.248C549.532 236.592 548.039 235.544 546.933 234.417C544.407 231.847 542.663 228.584 540.095 226.055C536.969 222.972 532.835 221.171 528.788 219.467C526.672 218.576 524.808 218.011 522.552 217.864C520.659 217.74 519.005 216.013 518.148 214.429C517.184 212.651 516.957 210.484 517.535 208.544C518.081 206.701 519.315 205.049 519.44 203.132C519.529 201.764 519.037 200.421 518.996 199.051C518.919 196.495 520.587 193.975 522.971 193.048C525.304 192.141 528.137 192.644 530.189 191.209C531.769 190.103 532.519 188.068 534.136 187.016C534.969 186.473 535.967 186.241 536.953 186.125C540.203 185.744 543.579 186.576 546.28 188.42C547.371 189.165 548.369 190.077 549.585 190.596C551.16 191.265 552.94 191.211 554.604 191.611C557.708 192.355 560.883 194.593 561.899 197.691C562.592 199.803 562.316 202.003 562.929 204.111C563.571 206.316 565.097 208.141 566.132 210.192C567.367 212.641 567.888 215.445 567.616 218.175C567.509 219.231 567.277 220.304 566.691 221.189C565.212 223.423 561.824 224.029 560.823 226.513C560.517 227.269 560.487 228.101 560.345 228.903C559.657 232.832 555.98 236.024 551.992 236.151C551.085 236.18 551.957 236.051 551.072 236.248Z" fill="#091B3D"/>
<path d="M553.061 243.328C553.133 241.32 553.878 231.258 553.878 231.258C553.927 232.013 557.493 234.226 560.93 230.494C564.461 226.664 564.154 221.116 561.818 218.81C558.209 215.248 552.786 218.138 552.022 223.024C549.154 224.461 548.257 220.933 550.214 216.981C550.067 213.73 546.718 213.206 547.141 206.145C546.859 202.618 536.151 199.201 526.742 200.964C524.778 205.009 522.345 208.292 522.699 213.424C522.825 215.24 521.297 217.42 521.089 219.822C520.166 230.49 522.961 235.645 526.301 237.596C528.542 238.904 530.486 239.445 534.503 239.556L534.165 242.904C534.015 244.581 534.133 246.105 532.474 246.578C531.739 247.649 529.881 255.354 535.61 260.74C546.582 258.378 555.281 249.218 556.075 247.596C553.387 246.621 552.989 245.336 553.061 243.328Z" fill="#C76668"/>
<path d="M524.188 211.45L528.652 210.649C528.476 209.398 527.333 208.564 526.1 208.785C524.868 209.006 524.012 210.2 524.188 211.45Z" fill="#091B3D"/>
<path d="M540.712 210.307L544.088 213.422C543.256 214.394 541.827 214.484 540.894 213.624C539.963 212.764 539.88 211.279 540.712 210.307Z" fill="#091B3D"/>
<path d="M528.454 215.348C528.445 216.382 527.587 217.234 526.542 217.251C525.495 217.27 524.655 216.446 524.666 215.412C524.675 214.379 525.533 213.527 526.578 213.51C527.625 213.492 528.465 214.315 528.454 215.348Z" fill="#091B3D"/>
<path d="M541.697 217.498C541.686 218.531 540.83 219.383 539.783 219.401C538.738 219.419 537.898 218.595 537.909 217.562C537.918 216.529 538.775 215.677 539.821 215.659C540.866 215.642 541.707 216.465 541.697 217.498Z" fill="#091B3D"/>
<path d="M526.303 223.159L531.927 225.611L534.131 215.061C531.755 214.935 529.058 218.691 526.303 223.159Z" fill="#B0494C"/>
<path d="M531.839 229.217C531.839 230.236 532.664 231.061 533.683 231.061C534.703 231.061 535.528 230.236 535.528 229.217C535.528 228.198 534.703 227.372 533.683 227.372C532.664 227.372 531.839 228.198 531.839 229.217Z" fill="#B0494C"/>
<path d="M535.462 228.754C535.501 228.903 535.527 229.056 535.527 229.216C535.527 230.236 534.702 231.062 533.683 231.062C533.221 231.062 532.805 230.886 532.481 230.606C533.127 229.591 534.207 228.896 535.462 228.754Z" fill="#FF9090"/>
<path d="M534.503 239.555C539.851 239.574 543.617 238.675 546.033 237.147C548.099 235.839 549.634 234.126 550.445 232.65C550.445 232.65 549.297 236.574 546.605 238.623C541.627 242.41 534.247 242.088 534.247 242.088L534.503 239.555Z" fill="#B0494C"/>
<path d="M537.03 295.64C537.03 295.64 536.629 297.779 536.599 298.144C536.525 302.205 538.923 304.889 542.661 306.508C547.829 308.747 556.569 311.445 567.765 314.444C580.502 317.855 586.998 315.672 589.337 313.373C591.675 311.073 592.678 305.603 591.246 299.704C586.829 281.505 585.873 278.444 583.733 271.375C578.118 252.824 574.923 252.477 565.887 249.915C560.849 255.517 560.223 266.504 563.226 276.323C567.301 289.648 570.215 296.903 570.215 296.903C570.215 296.903 559.827 295.935 548.093 293.472C543.294 292.464 544.657 285.479 544.657 285.479L537.03 295.64Z" fill="#C76668"/>
<path d="M544.207 282.967C544.912 279.276 544.766 278.481 543.36 275.804C541.955 273.125 541.342 271.881 540.707 270.884C540.074 269.888 537.275 266.829 536.468 266.392C535.02 265.608 534.264 268.533 535.444 270.48C536.624 272.427 538.358 274.848 538.358 274.848L544.207 282.967Z" fill="#B0494C"/>
<path d="M541.215 299.704C540.879 298.742 544.332 296.374 544.009 294.614C543.688 292.856 543.373 292.773 544.361 291.25C545.349 289.729 545.292 288.35 544.707 287.498C544.123 286.645 545.975 286.036 545.441 284.133C545.033 282.677 542.885 279.045 541.876 277.62C540.867 276.193 536.72 274.014 534.825 273.136C532.932 272.257 532.521 273.854 532.568 275.062C532.615 276.27 534.089 277.857 534.089 277.857C534.089 277.857 531.888 277.113 531.468 277.817C530.916 278.745 531.084 280.713 533.256 282.349C531.459 281.493 530.603 282.196 530.799 283.642C530.948 284.75 531.864 285.952 533.3 287.164C535.107 288.686 537.36 290.41 537.611 292.292L537.031 295.64L541.215 299.704Z" fill="#C76668"/>
<path d="M541.215 299.704C541.039 299.296 541.311 298.861 541.472 298.506C541.675 298.146 541.904 297.814 542.136 297.492C542.589 296.845 543.087 296.232 543.387 295.594C543.539 295.285 543.641 294.966 543.604 294.702L543.439 293.536C543.373 293.142 543.383 292.617 543.596 292.225C543.813 291.844 544.065 291.533 544.361 291.25C544.231 291.636 544.055 292.001 543.999 292.366C543.921 292.724 543.993 293.025 544.104 293.401C544.221 293.769 544.325 294.16 544.417 294.565C544.516 295.098 544.347 295.568 544.172 295.969C543.771 296.762 543.215 297.361 542.653 297.928L541.815 298.758C541.545 299.036 541.245 299.301 541.215 299.704Z" fill="#B0494C"/>
<path d="M534.09 277.856C535.153 278.275 536.199 278.706 537.223 279.191C538.255 279.686 539.254 280.143 540.258 280.862C541.185 281.756 541.755 282.668 542.394 283.632C543.013 284.587 543.566 285.582 544.058 286.614C543.286 285.771 542.549 284.91 541.845 284.03L540.781 282.726C540.434 282.306 540.061 281.838 539.715 281.542C538.89 280.927 537.846 280.386 536.902 279.787C535.935 279.202 534.986 278.567 534.09 277.856Z" fill="#B0494C"/>
<path d="M542.261 291.033C541.592 290.19 541.037 289.242 540.468 288.388C539.895 287.545 539.141 286.896 538.291 286.277C536.607 285.016 534.86 283.79 533.256 282.349C535.236 283.213 537.069 284.308 538.813 285.581C539.672 286.221 540.541 287.026 541.047 288.037C541.556 289.021 541.881 290.02 542.261 291.033Z" fill="#B0494C"/>
<path d="M570.215 296.902C575.158 296.876 579.623 297.524 583.254 301.345C580.387 295.326 574.558 295.31 569.514 295.077L570.215 296.902Z" fill="#B0494C"/>
<path d="M565.205 249.627C573.354 251.563 574.882 252.232 577.176 255.003C579.469 257.774 580.71 260.288 583.577 269.396C581.38 275.066 563.322 279.006 563.322 279.006C563.322 279.006 561.508 273.823 560.838 268.856C560.17 263.887 560.113 254.952 565.205 249.627Z" fill="#9ED9EB"/>
</g>
<mask id="mask11_297_19426" style="mask-type:luminance" maskUnits="userSpaceOnUse" x="0" y="0" width="667" height="667">
<path d="M0 6.00815e-05H666.667V666.667H0V6.00815e-05Z" fill="white"/>
</mask>
<g mask="url(#mask11_297_19426)">
<path d="M276.609 547.904C277.424 536.032 277.845 530.478 278.976 509.269C279.077 503.833 279.273 498.009 279.639 492.834C280.864 475.428 283.104 471.284 284.601 465.313C286.099 459.341 285.901 443.182 288.183 405.749C289.449 384.988 292.456 373.49 295.091 363.457H348.703C354.212 386.926 355.781 437.74 355.617 461.926C355.533 474.258 355.4 537.968 355.708 543.06C356.035 548.444 358.755 551.842 360.864 554.106C365.283 558.848 368.452 560.765 373.988 564.898C373.187 567.017 361.583 566.938 358.287 565.326C353.02 562.752 346.232 558.521 344.436 557.19C339.887 553.824 338.821 551.79 338.747 546.665C338.735 546.026 338.76 545.093 338.793 544.992C338.707 542 330.079 497.357 328.197 487.274C326.736 479.445 328.337 464.28 328.337 464.28L322.656 426.985C322.656 426.985 317.655 456.734 314.231 471.813C311.715 482.893 305.489 500.396 301.413 518.118C296.653 536.13 296.273 537.716 293.464 550.617C292.049 557.121 288.587 578.992 287.009 583.49C281.92 598.01 270.399 590.797 269.747 582.77C269.312 577.428 276.433 550.461 276.609 547.904Z" fill="#FFAAA8"/>
<path d="M322.656 426.985L326.809 400.083C326.809 400.083 342.865 398.176 348.703 392.567C348.703 392.567 341.34 402.956 330.447 404.649L325.869 426.951L328.288 463.961L322.656 426.985Z" fill="#C66150"/>
<path d="M386.269 570.905C386.569 570.903 387.058 574.211 385.441 575.636C383.573 577.283 378.069 580.011 370.749 579.144C363.429 578.276 359.446 576.057 356.494 573.64C353.542 571.223 349.406 567.815 346.092 567.12C343.012 566.476 337.994 564.799 337.001 563.859C336.008 562.92 336.1 558.697 336.1 558.697L386.269 570.905Z" fill="#091B3D"/>
<path d="M338.69 543.867C338.69 543.867 337.709 544.336 337.53 545.315C337.318 546.48 337.324 547.971 336.861 549.886C336.218 552.547 335.828 557.991 336.253 560.15C336.678 562.307 343.369 564.079 346.582 565.263C349.864 566.472 353.672 568.998 357.02 571.699C360.485 574.495 367.742 577.259 372.508 577.278C379.782 577.307 384.472 575.283 385.898 572.654C387.664 569.399 386.232 567.542 377.832 563.758C376.242 563.042 370.648 559.811 368.741 558.639C366.726 557.4 364.793 556.02 363.008 554.466C362.105 553.68 361.241 552.85 360.429 551.968C359.716 551.194 358.712 550.258 358.284 549.288C358.186 549.068 358.118 548.811 358.03 548.583C357.78 547.924 357.606 547.316 357.465 546.63C357.324 545.936 357.228 544.924 356.562 544.515C355.798 544.044 354.429 544.119 353.57 544.194C352.49 544.287 351.406 544.436 350.352 544.684C349.124 544.974 346.036 544.776 345.318 545.94C344.769 546.831 344.696 547.951 344.662 548.975C344.646 549.463 344.662 549.955 344.664 550.443C344.664 550.651 344.757 551.026 344.464 550.942C344.184 550.862 343.866 550.135 343.758 549.888C343.521 549.344 343.366 548.762 343.106 548.227C342.81 547.616 342.568 546.896 342.048 546.468C340.644 545.315 339.301 545.558 338.896 545.162C338.896 545.162 338.74 544.28 338.69 543.867Z" fill="#00235D"/>
<path d="M379.187 564.38C368.664 565.219 365.417 571.758 365.013 575.787C367.632 576.683 370.329 577.27 372.508 577.278C379.783 577.307 384.771 575.282 386.197 572.652C387.863 569.583 386.683 567.135 379.187 564.38Z" fill="#FAFAFA"/>
<path d="M363.402 564.657C363.287 564.659 363.171 564.623 363.075 564.544C362.852 564.367 362.818 564.044 362.995 563.821C364.442 562.011 368.644 559.589 372.476 559.965C372.759 559.992 372.967 560.244 372.938 560.527C372.911 560.808 372.667 561.016 372.378 560.989C368.8 560.648 364.946 563.028 363.798 564.464C363.699 564.589 363.551 564.656 363.402 564.657Z" fill="#F0F0F0"/>
<path d="M358.838 562.063C358.723 562.065 358.607 562.029 358.511 561.951C358.289 561.774 358.254 561.45 358.431 561.227C359.879 559.415 364.083 556.989 367.913 557.371C368.195 557.398 368.403 557.651 368.374 557.933C368.347 558.215 368.107 558.422 367.813 558.395C364.237 558.05 360.381 560.434 359.234 561.87C359.134 561.995 358.987 562.062 358.838 562.063Z" fill="#F0F0F0"/>
<path d="M354.604 559.09C354.489 559.092 354.373 559.054 354.277 558.977C354.055 558.8 354.02 558.477 354.197 558.254C355.644 556.442 359.864 554.02 363.677 554.398C363.961 554.425 364.169 554.677 364.14 554.96C364.113 555.241 363.872 555.446 363.579 555.422C360.007 555.08 356.147 557.461 355 558.897C354.9 559.022 354.753 559.089 354.604 559.09Z" fill="#F0F0F0"/>
<path d="M350.454 556.116C350.342 556.117 350.229 556.083 350.134 556.008C349.909 555.835 349.869 555.511 350.042 555.287C352.032 552.719 356.573 550.992 360.4 551.368C360.682 551.396 360.89 551.648 360.862 551.931C360.836 552.212 360.592 552.412 360.301 552.392C356.854 552.056 352.621 553.64 350.854 555.917C350.756 556.047 350.605 556.115 350.454 556.116Z" fill="#F0F0F0"/>
<path d="M288.592 585.158C287.758 590.055 286.63 593.239 284.56 595.935C282.49 598.633 279.09 599.175 275.842 597.958C272.594 596.741 268.565 594.003 268.078 589.645C267.593 585.286 267.357 582.31 268.624 577.823L288.592 585.158Z" fill="#091B3D"/>
<path d="M276.609 547.904C275.22 547.86 274.861 554.433 273.333 560.973C271.695 567.982 270.359 570.685 268.952 576.425C267.345 582.982 268.117 586.077 270.003 590.36C271.888 594.641 279.704 599.502 284.411 594.192C288.248 589.861 288.961 584.668 289.397 577.99C289.845 571.086 291.027 566.549 292.161 561.42C293.335 556.114 294.599 551.305 293.464 550.617C293.292 551.34 292.469 555.092 292.056 555.9C291.873 556.256 291.239 557.121 291.181 555.709C291.164 555.289 291.396 554.35 291.407 553.937C291.435 552.776 290.757 552.509 290.333 552.206C289.415 551.553 287.297 550.581 284.608 550.269C281.92 549.957 279.604 549.609 278.019 550.212C277.065 550.573 276.993 551.434 276.803 552.264C276.575 553.252 276.489 553.869 276.267 553.642C275.819 553.185 276.675 548.63 276.609 547.904Z" fill="#00235D"/>
<path d="M268.143 580.238C267.447 584.343 268.12 587.283 269.596 590.635C271.482 594.916 279.962 599.866 284.668 594.554C287.01 591.911 287.928 588.582 288.59 585.155C286.644 580.443 272.407 576.883 268.143 580.238Z" fill="#FAFAFA"/>
<path d="M286.388 577.586C286.331 577.574 286.276 577.553 286.224 577.521C286.171 577.488 280.092 574.148 273.732 574.894C273.452 574.924 273.196 574.725 273.161 574.444C273.129 574.162 273.332 573.906 273.613 573.873C280.34 573.086 286.537 576.506 286.768 576.646C287.008 576.798 287.081 577.114 286.932 577.356C286.815 577.544 286.593 577.63 286.388 577.586Z" fill="#F0F0F0"/>
<path d="M274.59 569.97C274.399 569.928 274.239 569.78 274.195 569.578C274.135 569.3 274.31 569.026 274.586 568.964C280.991 567.558 287.494 571.456 287.736 571.62C287.972 571.779 288.035 572.096 287.875 572.332C287.715 572.567 287.394 572.623 287.162 572.471C287.107 572.435 280.768 568.652 274.808 569.97C274.734 569.986 274.66 569.984 274.59 569.97Z" fill="#F0F0F0"/>
<path d="M275.326 565.317C275.139 565.277 274.982 565.132 274.934 564.934C274.868 564.657 275.038 564.38 275.314 564.316C282.372 562.636 288.495 566.786 288.72 566.96C288.946 567.133 288.987 567.456 288.814 567.68C288.64 567.905 288.312 567.946 288.094 567.773C288.043 567.734 282.123 563.753 275.552 565.314C275.475 565.333 275.398 565.333 275.326 565.317Z" fill="#F0F0F0"/>
<path d="M276.173 560.751C275.989 560.712 275.833 560.571 275.783 560.375C275.713 560.1 275.879 559.82 276.155 559.751C282.781 558.073 289.391 562.365 289.636 562.548C289.865 562.715 289.913 563.036 289.747 563.265C289.58 563.495 289.259 563.548 289.029 563.376C288.972 563.335 282.56 559.188 276.407 560.747C276.328 560.767 276.249 560.767 276.173 560.751Z" fill="#ECECEC"/>
<path d="M290.223 363.457C288.853 377.756 288.183 381.691 285.997 414.29C283.875 445.902 285.107 455.532 284.795 459.342C284.081 468.078 280.209 471.094 279.081 491.703C278.046 510.591 277.425 533.888 277.425 533.888C277.425 533.888 279.966 537.382 287.161 538.027C293.799 538.622 297.118 536.131 297.118 536.131C297.118 536.131 309.423 492.107 312.859 481.018C317.519 465.972 322.655 434.564 322.655 434.564L326.997 464.787C326.997 464.787 325.598 479.266 328.406 492.936C331.889 509.887 335.442 528.304 335.442 528.304C335.442 528.304 339.79 530.12 345.441 529.55C353.21 528.764 355.806 526.959 355.806 526.959C355.806 526.959 357.986 475.752 357.986 457.051C357.986 438.348 357.262 392.428 355.662 363.317L290.223 363.457Z" fill="#9ED9EB"/>
<path d="M322.656 434.564L328.048 401.842C328.048 401.842 338.876 398.983 345.828 391.714C345.312 397.132 335.681 404.083 331.171 405.164L325.152 434.16L326.996 464.787L322.656 434.564Z" fill="#017FA5"/>
<path d="M310.085 368.525C308.388 371.209 307.113 374.139 306.025 377.112C304.929 380.088 304.07 383.14 303.32 386.212C302.606 389.293 302.014 392.4 301.606 395.535C301.19 398.665 300.912 401.825 300.982 404.997C301.737 401.921 302.44 398.868 303.138 395.811C303.852 392.76 304.52 389.705 305.26 386.671C305.962 383.627 306.725 380.601 307.504 377.576C308.301 374.555 309.14 371.549 310.085 368.525Z" fill="#017FA5"/>
<path d="M305.951 369.669C304.354 371.122 302.955 372.753 301.673 374.469C300.379 376.178 299.239 377.998 298.194 379.872C297.182 381.764 296.263 383.712 295.555 385.746C294.839 387.772 294.289 389.874 294.106 392.029L296.983 386.364C297.959 384.508 298.925 382.654 299.943 380.826C300.929 378.98 301.967 377.16 302.974 375.309C303.993 373.465 305.017 371.616 305.951 369.669Z" fill="#00235D"/>
<path d="M312.824 407.512C311.46 417.318 310.233 427.138 309 436.944C307.73 446.747 306.778 462.568 304.976 472.258C303.122 481.933 291.722 519.896 290.224 529.679C292.485 520.038 305.033 482.366 306.934 472.618C308.713 462.846 309.585 446.972 310.538 437.119C311.514 427.264 312.226 417.394 312.824 407.512Z" fill="#017FA5"/>
<path d="M348.038 407.512L349.653 433.309C349.89 437.608 350.166 441.904 350.362 446.2C350.559 450.489 350.814 454.802 350.742 459.045C350.654 463.305 350.386 504.501 350.967 513.122C351.979 503.52 352.443 467.754 352.734 459.077C352.707 450.357 351.97 441.792 351.198 433.19C350.401 424.602 349.366 416.034 348.038 407.512Z" fill="#017FA5"/>
<path d="M334.637 524.158L336.098 533.124C336.098 533.124 339.69 535.416 347.227 534.637C354.765 533.858 355.849 531.421 355.849 531.421V522.986C355.849 522.986 354.042 524.74 347.161 525.516C340.278 526.293 334.637 524.158 334.637 524.158Z" fill="#00235D"/>
<path d="M277.581 527.638L276.911 536.697C276.911 536.697 279.869 539.765 287.38 540.765C294.892 541.765 296.515 539.648 296.515 539.648L298.481 531.445C298.481 531.445 296.317 532.729 289.443 531.88C282.569 531.03 277.581 527.638 277.581 527.638Z" fill="#00235D"/>
<path d="M342.979 292.371C349.957 293.228 357.298 297.531 370.009 304.566C380.285 310.255 383.63 312.096 383.63 312.096C383.63 312.096 395.041 290.307 399.231 283.246C405.307 273.011 410.149 284.812 408.571 289.034C405.613 296.948 404.642 306.1 399.71 323.248C397.162 332.104 395.387 335.918 384.302 332.284C375.175 329.292 352.157 320.81 352.157 320.81L342.979 292.371Z" fill="#FFAAA8"/>
<path d="M413.142 268.948C413.794 264.664 410.526 259.915 410.526 259.915L410.534 266.341L413.142 268.948Z" fill="#FF9090"/>
<path d="M342.502 291.445C349.686 292.379 353.071 293.595 357.805 296.497C362.538 299.399 379.891 309.236 379.891 309.236C379.891 309.236 381.19 313.227 380.447 320.093C379.706 326.96 374.973 329.744 374.973 329.744L349.823 321.348L342.502 291.445Z" fill="#091B3D"/>
<path d="M290.223 297.675C290.223 297.675 284.737 308.815 288.174 329.23C289.745 338.558 290.906 345.815 290.223 358.209C289.645 368.725 287.506 387.871 287.506 387.871C298.307 397.051 345.71 397.487 356.77 383.701C356.77 383.701 356.162 361.069 356.162 343.214C356.162 329.893 355.407 318.721 353.895 312.431C350.477 298.214 345.386 293.598 342.502 291.446C334.747 290.887 330.614 290.806 319.186 291.899C310.31 292.749 299.973 295.078 293.67 296.498C291.117 297.073 290.223 297.675 290.223 297.675Z" fill="#00235D"/>
<path d="M290.223 297.675C280.853 300.925 279.145 305.17 272.478 316.653C265.81 328.135 259.019 343.693 256.427 351.101C253.834 358.509 257.854 366.459 261.341 367.881C264.087 369.001 266.347 370.119 269.727 367.525C271.689 366.019 275.119 362.526 277.123 359.393C283.777 348.993 294.106 330.969 294.106 330.969C294.106 330.969 301.302 306.602 290.223 297.675Z" fill="#FFAAA8"/>
<path d="M272.06 358.776C273.781 349.91 272.297 346.812 271.553 341.264C270.824 335.823 269.914 327.324 269.388 322.244C266.873 326.987 264.442 332.034 262.325 336.735L272.06 358.776Z" fill="#FF9090"/>
<path d="M263.013 333.776C263.573 336.566 270.367 350.662 281.557 353.124L295.531 330.401C295.531 330.401 301.053 315.958 293.67 296.497C285.281 298.073 281.699 299.864 276.553 308.032C271.405 316.201 263.013 333.776 263.013 333.776Z" fill="#091B3D"/>
<path d="M256.049 327.185C255.983 328.858 256.292 330.039 256.007 335.59C255.72 341.141 255.504 341.95 255.084 347.817C254.62 354.293 253.456 358.454 257.604 365.065C261.849 371.83 266.653 370.298 270.855 366.583C272.929 360.143 272.319 349.85 269.727 342.381C267.136 334.913 266.653 328.678 266.653 328.678L256.049 327.185Z" fill="#FFAAA8"/>
<path d="M250.4 311.669C249.971 311.193 248.592 310.945 247.969 311.437C247.364 311.914 248.201 313.544 249.347 315.728C250.104 317.17 251.739 322.376 253.361 324.564C254.985 326.752 255.925 328.43 256.129 331.182C257.816 324.196 255.053 316.432 250.4 311.669Z" fill="#FF9090"/>
<path d="M307.637 283.523C303.073 276.979 298.924 272.874 295.56 265.551C294.197 262.585 291.969 255.699 293.289 251.515C294.209 248.599 295.776 246.233 298.816 245.929C297.705 242.042 299.361 239.513 300.858 237.694C302.356 235.875 304.96 235.051 307.23 235.675C307.304 233.655 308.613 231.73 310.465 230.921C312.317 230.11 314.618 230.454 316.153 231.77C317.329 228.815 320.142 228.297 321.493 228.266C323.878 228.211 326.228 229.709 327.185 231.893C331.412 228.081 338.51 230.522 338.76 237.942C339.71 237.079 341.193 236.861 342.353 237.413C343.513 237.965 344.277 239.254 344.208 240.537C344.161 241.378 343.79 242.215 343.969 243.039C344.126 243.761 344.734 244.362 345.456 244.514C346.178 244.665 346.976 244.355 347.409 243.758C347.846 245.042 347.586 246.542 346.74 247.602C345.893 248.662 344.488 249.249 343.138 249.105C343.492 250.227 343.12 251.545 342.229 252.317C341.582 252.879 340.518 253.123 339.678 253.047C339.678 253.047 307.817 283.353 307.637 283.523Z" fill="#091B3D"/>
<path d="M341.326 273.448C340.723 279.069 338.551 281.9 334.941 283.593C332.473 284.752 328.898 285.131 328.898 285.131L329.43 291.132C341.646 303.073 315.129 304.732 308.853 293.869L306.717 275.691C306.717 275.691 304.658 278.705 300.394 276.623C297.471 275.184 294.962 270.86 296.414 266.415C297.857 262.045 301.765 261.775 303.898 263.485C306.274 265.391 306.319 267.412 307.363 267.208C308.977 266.892 309.597 266.016 309.866 264.956C310.347 263.1 310.273 261.253 309.861 257.301C311.265 256.347 312.837 254.755 313.349 253.472C314.633 250.252 313.349 247.188 312.207 245.249C316.466 243.113 321.593 247.28 326.394 247.371C331.893 247.475 331.897 242.851 334.893 242.903C337.498 244.772 339.151 249.651 339.375 252.881C339.813 259.181 342.519 262.329 341.326 273.448Z" fill="#FFAAA8"/>
<path d="M328.896 285.127C322.428 285.497 315.51 284.185 312.892 282.057C310.276 279.927 308.68 275.109 308.68 275.109C308.68 275.109 309.8 281.307 311.931 283.839C314.062 286.37 318.739 287.013 321.571 287.355C324.403 287.699 329.122 287.65 329.122 287.65L328.896 285.127Z" fill="#FF9090"/>
<path d="M336.862 254.773L332.443 253.387C332.783 252.141 334.049 251.444 335.269 251.828C336.489 252.211 337.202 253.529 336.862 254.773Z" fill="#091B3D"/>
<path d="M316.606 257.42L320.301 254.533C319.537 253.473 318.089 253.263 317.069 254.06C316.049 254.857 315.841 256.361 316.606 257.42Z" fill="#091B3D"/>
<path d="M332.864 258.937C332.96 259.988 333.902 260.783 334.969 260.715C336.034 260.645 336.821 259.737 336.724 258.688C336.628 257.636 335.685 256.841 334.62 256.911C333.553 256.979 332.768 257.887 332.864 258.937Z" fill="#091B3D"/>
<path d="M318.427 260.723C318.523 261.774 319.465 262.57 320.532 262.5C321.597 262.431 322.384 261.523 322.287 260.474C322.191 259.422 321.248 258.627 320.183 258.696C319.117 258.764 318.329 259.672 318.427 260.723Z" fill="#091B3D"/>
<path d="M334.603 266.661L328.471 269.372L326.047 257.292C328.266 256.697 332.164 262.55 334.603 266.661Z" fill="#FF9090"/>
<path d="M327.688 273.26C327.175 272.302 326.008 271.759 324.992 271.532C324.417 271.404 323.821 271.359 323.235 271.399C322.619 271.44 321.995 271.516 321.46 271.842C321.2 272 321.488 272.442 321.732 272.426C322.796 272.352 323.827 272.167 324.892 272.374C325.413 272.475 325.944 272.652 326.424 272.875C326.82 273.058 327.167 273.324 327.559 273.514C327.707 273.584 327.736 273.35 327.688 273.26Z" fill="#C76668"/>
<path d="M325.232 310.705C298.376 310.705 276.257 290.506 273.166 264.502C276.257 238.458 298.376 218.282 325.232 218.282C352.113 218.282 374.233 238.458 377.324 264.502C374.233 290.506 352.113 310.705 325.232 310.705ZM410.526 258.255C410.526 211.141 372.346 172.961 325.232 172.961C278.144 172.961 239.965 211.141 239.965 258.255V270.758C239.965 317.846 278.144 356.053 325.232 356.053C372.346 356.053 410.526 317.846 410.526 270.758V258.255Z" fill="#2772F0"/>
<mask id="mask12_297_19426" style="mask-type:luminance" maskUnits="userSpaceOnUse" x="239" y="172" width="172" height="185">
<path d="M239.964 172.961H410.527V356.052H239.964V172.961Z" fill="white"/>
</mask>
<g mask="url(#mask12_297_19426)">
<g opacity="0.5">
<path d="M325.232 310.705C298.376 310.705 276.257 290.506 273.166 264.502C276.257 238.458 298.376 218.282 325.232 218.282C352.113 218.282 374.233 238.458 377.324 264.502C374.233 290.506 352.113 310.705 325.232 310.705ZM410.526 258.255C410.526 211.141 372.346 172.961 325.232 172.961C278.144 172.961 239.965 211.141 239.965 258.255V270.758C239.965 317.846 278.144 356.053 325.232 356.053C372.346 356.053 410.526 317.846 410.526 270.758V258.255Z" fill="white"/>
</g>
</g>
<path d="M325.232 323.208C296.259 323.208 272.783 299.704 272.783 270.758C272.783 241.758 296.259 218.282 325.232 218.282C354.232 218.282 377.708 241.758 377.708 270.758C377.708 299.704 354.232 323.208 325.232 323.208ZM325.232 185.464C278.144 185.464 239.964 223.644 239.964 270.758C239.964 317.846 278.144 356.053 325.232 356.053C372.347 356.053 410.527 317.846 410.527 270.758C410.527 223.644 372.347 185.464 325.232 185.464Z" fill="#2772F0"/>
<mask id="mask13_297_19426" style="mask-type:luminance" maskUnits="userSpaceOnUse" x="239" y="185" width="172" height="172">
<path d="M239.964 185.464H410.527V356.052H239.964V185.464Z" fill="white"/>
</mask>
<g mask="url(#mask13_297_19426)">
<g opacity="0.300003">
<path d="M325.232 323.208C296.259 323.208 272.783 299.704 272.783 270.758C272.783 241.758 296.259 218.282 325.232 218.282C354.232 218.282 377.708 241.758 377.708 270.758C377.708 299.704 354.232 323.208 325.232 323.208ZM325.232 185.464C278.144 185.464 239.964 223.644 239.964 270.758C239.964 317.846 278.144 356.053 325.232 356.053C372.347 356.053 410.527 317.846 410.527 270.758C410.527 223.644 372.347 185.464 325.232 185.464Z" fill="white"/>
</g>
</g>
<path d="M325.238 310.707C298.403 310.707 276.303 290.544 273.182 264.582C272.938 266.61 272.784 268.663 272.784 270.759C272.784 299.704 296.254 323.212 325.238 323.212C354.235 323.212 377.704 299.704 377.704 270.759C377.704 268.663 377.551 266.61 377.307 264.582C374.184 290.544 352.086 310.707 325.238 310.707Z" fill="#2772F0"/>
<mask id="mask14_297_19426" style="mask-type:luminance" maskUnits="userSpaceOnUse" x="272" y="264" width="106" height="60">
<path d="M272.784 264.583H377.704V323.213H272.784V264.583Z" fill="white"/>
</mask>
<g mask="url(#mask14_297_19426)">
<g opacity="0.300003">
<path d="M325.238 310.707C298.403 310.707 276.303 290.544 273.182 264.582C272.938 266.61 272.784 268.663 272.784 270.759C272.784 299.704 296.254 323.212 325.238 323.212C354.235 323.212 377.704 299.704 377.704 270.759C377.704 268.663 377.551 266.61 377.307 264.582C374.184 290.544 352.086 310.707 325.238 310.707Z" fill="black"/>
</g>
</g>
<path d="M414.179 271.596C415.422 269.201 415.238 268.935 414.236 267.947C413.236 266.959 411.091 265.404 408.266 265.895C406.364 266.225 404.432 266.465 403.52 267.115C402.608 267.764 403.743 269.715 406.311 269.916C410.356 270.232 410.484 271.3 410.484 271.3C410.484 271.3 406.759 271.013 405.298 271.139C403.836 271.265 401.29 272.335 399.674 272.833C398.059 273.331 398.039 275.509 400.946 275.843C400.946 275.843 398.907 276.475 397.986 276.761C395.915 277.404 395.356 278.636 397.208 279.709C397.65 279.964 398.25 280.247 399.232 280.155C399.232 280.155 396.972 280.477 397.034 281.235C397.21 283.407 398.686 283.771 403.439 284.441C407.487 285.012 408.97 286.401 408.776 288.025L408.571 289.033C408.571 289.033 410.178 287.761 411.583 286.46C412.614 285.505 413.455 284.479 412.683 282.768C412.683 282.768 415.178 282.46 415.108 280.901C415.04 279.341 414.035 277.691 414.035 277.691C414.035 277.691 415.391 276.761 415.039 274.944C414.687 273.125 413.747 272.371 413.747 272.371L414.179 271.596Z" fill="#FFAAA8"/>
<path d="M400.945 275.842C401.839 275.574 402.668 275.25 403.652 275.15C404.668 275.095 405.559 275.389 406.437 275.613C408.193 276.119 409.936 276.687 411.603 277.491C409.756 277.303 407.984 276.879 406.227 276.395C405.349 276.15 404.479 275.846 403.66 275.781C402.819 275.763 401.863 275.885 400.945 275.842Z" fill="#FF9090"/>
<path d="M399.232 280.155C400.136 279.739 401.185 279.565 402.195 279.637C403.209 279.685 404.192 279.893 405.157 280.125C407.077 280.625 408.951 281.26 410.736 282.153C408.761 281.872 406.857 281.383 404.96 280.912C403.057 280.444 401.22 279.909 399.232 280.155Z" fill="#FF9090"/>
<path d="M252.352 322.336C249.94 321.13 249.932 320.804 250.162 319.416C250.391 318.03 251.214 315.511 253.79 314.25C255.522 313.4 257.227 312.459 258.346 312.448C259.466 312.439 259.692 314.684 257.734 316.355C254.646 318.987 255.403 319.648 255.403 319.648C255.403 319.648 258.015 317.506 259.272 316.75C260.53 315.994 263.219 315.363 264.818 314.818C266.418 314.272 267.714 316.023 265.556 317.999C265.556 317.999 267.578 317.315 268.491 317.006C270.546 316.308 271.722 316.978 270.852 318.935C270.646 319.4 270.324 319.98 269.476 320.483C269.476 320.483 271.494 319.418 271.89 320.067C273.024 321.927 272.042 323.09 268.588 326.424C265.648 329.263 265.267 331.247 266.378 332.447L267.136 333.188C267.136 333.188 265.086 333.07 263.183 332.842C261.79 332.675 260.506 332.338 260.126 330.5C260.126 330.5 258.166 331.048 256.635 329.666C255.784 328.899 256.05 327.184 256.05 327.184C256.05 327.184 254.326 327.091 253.543 325.412C252.759 323.734 253.158 322.71 253.158 322.71L252.352 322.336Z" fill="#FFAAA8"/>
<path d="M265.557 318C264.677 318.308 263.815 318.533 262.959 319.029C262.106 319.582 261.557 320.342 260.978 321.04C259.854 322.482 258.778 323.965 257.901 325.594C259.285 324.358 260.47 322.973 261.607 321.549C262.173 320.836 262.699 320.078 263.323 319.545C263.994 319.036 264.839 318.573 265.557 318Z" fill="#FF9090"/>
<path d="M269.477 320.483C268.501 320.677 267.55 321.153 266.775 321.806C265.983 322.439 265.309 323.186 264.665 323.939C263.405 325.473 262.261 327.086 261.341 328.858C262.774 327.471 264.026 325.957 265.286 324.459C266.551 322.963 267.723 321.453 269.477 320.483Z" fill="#FF9090"/>
</g>
<mask id="mask15_297_19426" style="mask-type:luminance" maskUnits="userSpaceOnUse" x="0" y="0" width="667" height="667">
<path d="M0 6.00815e-05H666.667V666.667H0V6.00815e-05Z" fill="white"/>
</mask>
<g mask="url(#mask15_297_19426)">
<path d="M363.413 159.879L363.074 147.2C363.074 147.2 388.493 143.817 385.795 117.445C384.11 100.977 375.219 88.2308 323.441 89.6961C266.287 91.3134 271.482 125.547 277.795 135.261C287.287 149.867 310.359 151.552 351.234 149.279L361.509 160.641C362.19 161.393 363.439 160.893 363.413 159.879Z" fill="#FAFAFA"/>
<path d="M351.533 148.551L362.732 160.935L362.349 146.583L362.981 146.499C363.991 146.363 387.684 142.882 385.091 117.517C383.601 102.959 377.637 88.8701 323.46 90.4047C300.212 91.0634 284.752 97.4541 278.755 108.885C273.537 118.833 275.048 129.733 278.389 134.874C287.617 149.071 310.279 150.845 351.195 148.571L351.533 148.551ZM362.271 162.539L350.935 150.006C309.681 152.285 286.78 150.387 277.201 135.647C273.677 130.226 271.999 118.713 277.5 108.227C281.857 99.9194 293.363 89.8367 323.421 88.9874C373.26 87.5887 384.653 99.3154 386.5 117.373C388.995 141.755 367.772 147.026 363.801 147.794L364.173 161.777C364.201 162.791 362.951 163.291 362.271 162.539Z" fill="#2772F0"/>
<path d="M298.861 110.466C300.081 110.466 301.157 110.63 302.086 110.958C303.015 111.286 303.79 111.695 304.41 112.188C305.029 112.68 305.499 113.222 305.818 113.814C306.137 114.407 306.314 114.967 306.35 115.496C306.369 115.715 306.301 115.892 306.146 116.028C305.991 116.166 305.813 116.234 305.613 116.234H303.699C303.389 116.234 303.157 116.175 303.003 116.055C302.846 115.938 302.706 115.778 302.578 115.578C302.305 115.122 301.891 114.726 301.334 114.388C300.779 114.052 299.954 113.883 298.861 113.883C298.387 113.883 297.935 113.934 297.507 114.032C297.079 114.134 296.706 114.279 296.387 114.471C296.067 114.662 295.817 114.894 295.635 115.167C295.453 115.442 295.362 115.751 295.362 116.096C295.362 116.516 295.449 116.858 295.621 117.122C295.794 117.387 296.086 117.614 296.497 117.806C296.906 117.996 297.449 118.174 298.122 118.338C298.797 118.502 299.635 118.694 300.638 118.912C301.73 119.15 302.674 119.427 303.466 119.747C304.259 120.066 304.906 120.448 305.407 120.894C305.909 121.34 306.282 121.856 306.529 122.439C306.775 123.023 306.897 123.687 306.897 124.435C306.897 125.254 306.715 126.015 306.35 126.716C305.986 127.418 305.466 128.02 304.793 128.522C304.118 129.023 303.289 129.419 302.305 129.71C301.321 130.002 300.218 130.147 298.998 130.147C297.977 130.147 297.001 130.024 296.073 129.778C295.143 129.532 294.318 129.176 293.599 128.712C292.879 128.248 292.301 127.687 291.863 127.031C291.426 126.375 291.179 125.646 291.125 124.844C291.107 124.626 291.174 124.448 291.33 124.311C291.485 124.175 291.662 124.106 291.863 124.106H293.777C294.086 124.106 294.323 124.162 294.487 124.271C294.651 124.38 294.787 124.543 294.897 124.762C295.025 124.999 295.179 125.236 295.362 125.472C295.545 125.71 295.789 125.919 296.101 126.102C296.409 126.284 296.797 126.435 297.262 126.554C297.726 126.671 298.305 126.73 298.998 126.73C299.545 126.73 300.073 126.69 300.583 126.608C301.093 126.526 301.539 126.388 301.922 126.198C302.305 126.006 302.615 125.77 302.851 125.487C303.089 125.204 303.207 124.854 303.207 124.435C303.207 124.034 303.079 123.706 302.825 123.45C302.569 123.195 302.182 122.976 301.663 122.794C301.143 122.612 300.501 122.439 299.735 122.275C298.97 122.111 298.086 121.902 297.083 121.646C296.171 121.427 295.375 121.167 294.691 120.867C294.009 120.566 293.445 120.198 292.998 119.76C292.551 119.323 292.219 118.807 292.001 118.215C291.782 117.623 291.671 116.916 291.671 116.096C291.671 115.276 291.853 114.522 292.219 113.828C292.582 113.136 293.083 112.543 293.722 112.051C294.359 111.559 295.119 111.172 296.003 110.89C296.889 110.607 297.839 110.466 298.861 110.466Z" fill="#00235D"/>
<path d="M319.335 121.537C319.28 120.973 319.148 120.503 318.939 120.129C318.729 119.755 318.469 119.459 318.16 119.241C317.849 119.022 317.513 118.871 317.148 118.789C316.784 118.707 316.411 118.666 316.028 118.666C315.644 118.666 315.271 118.707 314.907 118.789C314.541 118.871 314.204 119.022 313.896 119.241C313.585 119.459 313.325 119.755 313.116 120.129C312.907 120.503 312.775 120.973 312.72 121.537C312.701 121.682 312.688 121.865 312.679 122.083C312.669 122.302 312.665 122.53 312.665 122.766C312.665 123.003 312.669 123.235 312.679 123.463C312.688 123.691 312.701 123.869 312.72 123.997C312.775 124.562 312.907 125.031 313.116 125.405C313.325 125.778 313.585 126.074 313.896 126.293C314.204 126.511 314.541 126.662 314.907 126.743C315.271 126.826 315.644 126.866 316.028 126.866C316.411 126.866 316.784 126.826 317.148 126.743C317.513 126.662 317.849 126.511 318.16 126.293C318.469 126.074 318.729 125.778 318.939 125.405C319.148 125.031 319.28 124.562 319.335 123.997C319.353 123.869 319.363 123.691 319.363 123.463V122.766V122.083C319.363 121.865 319.353 121.682 319.335 121.537ZM316.028 115.386C317.029 115.386 317.936 115.541 318.748 115.851C319.559 116.161 320.26 116.589 320.852 117.135C321.444 117.682 321.917 118.321 322.273 119.049C322.629 119.778 322.835 120.562 322.889 121.399C322.907 121.565 322.916 121.774 322.916 122.029V122.794V123.546C322.916 123.791 322.907 123.997 322.889 124.161C322.815 124.999 322.605 125.783 322.26 126.511C321.915 127.241 321.444 127.874 320.852 128.411C320.26 128.95 319.559 129.373 318.748 129.682C317.936 129.993 317.029 130.147 316.028 130.147C315.025 130.147 314.119 129.993 313.308 129.682C312.496 129.373 311.795 128.95 311.203 128.411C310.611 127.874 310.141 127.241 309.796 126.511C309.449 125.783 309.239 124.999 309.167 124.161C309.148 123.997 309.135 123.791 309.125 123.546C309.116 123.299 309.112 123.05 309.112 122.794C309.112 122.539 309.116 122.283 309.125 122.029C309.135 121.774 309.148 121.565 309.167 121.399C309.221 120.562 309.425 119.778 309.781 119.049C310.137 118.321 310.611 117.682 311.203 117.135C311.795 116.589 312.496 116.161 313.308 115.851C314.119 115.541 315.025 115.386 316.028 115.386Z" fill="#00235D"/>
<path d="M332.675 118.939C331.581 118.939 330.793 119.181 330.311 119.665C329.827 120.147 329.587 120.935 329.587 122.029V129.135C329.587 129.337 329.513 129.509 329.368 129.655C329.221 129.801 329.048 129.874 328.848 129.874H326.769C326.569 129.874 326.396 129.801 326.252 129.655C326.104 129.509 326.033 129.337 326.033 129.135V116.397C326.033 116.197 326.104 116.025 326.252 115.878C326.396 115.733 326.569 115.659 326.769 115.659H328.848C329.048 115.659 329.221 115.733 329.368 115.878C329.513 116.025 329.587 116.197 329.587 116.397V117.026C330.06 116.589 330.565 116.251 331.103 116.014C331.641 115.778 332.347 115.659 333.221 115.659H334.452C334.651 115.659 334.824 115.733 334.971 115.878C335.116 116.025 335.189 116.197 335.189 116.397V118.201C335.189 118.402 335.116 118.575 334.971 118.721C334.824 118.867 334.651 118.939 334.452 118.939H332.675Z" fill="#00235D"/>
<path d="M344.1 118.939C343.007 118.939 342.219 119.181 341.736 119.665C341.252 120.147 341.012 120.935 341.012 122.029V129.135C341.012 129.337 340.939 129.509 340.794 129.655C340.647 129.801 340.474 129.874 340.274 129.874H338.195C337.995 129.874 337.822 129.801 337.678 129.655C337.53 129.509 337.459 129.337 337.459 129.135V116.397C337.459 116.197 337.53 116.025 337.678 115.878C337.822 115.733 337.995 115.659 338.195 115.659H340.274C340.474 115.659 340.647 115.733 340.794 115.878C340.939 116.025 341.012 116.197 341.012 116.397V117.026C341.486 116.589 341.991 116.251 342.528 116.014C343.067 115.778 343.772 115.659 344.647 115.659H345.878C346.076 115.659 346.25 115.733 346.396 115.878C346.542 116.025 346.615 116.197 346.615 116.397V118.201C346.615 118.402 346.542 118.575 346.396 118.721C346.25 118.867 346.076 118.939 345.878 118.939H344.1Z" fill="#00235D"/>
<path d="M353.203 129.108L347.79 116.588C347.773 116.533 347.763 116.471 347.763 116.397C347.763 116.197 347.837 116.024 347.982 115.879C348.127 115.732 348.299 115.66 348.502 115.66H350.551C350.77 115.66 350.961 115.732 351.125 115.879C351.289 116.024 351.398 116.169 351.454 116.315L355.089 124.761L358.725 116.315C358.779 116.169 358.889 116.024 359.053 115.879C359.217 115.732 359.407 115.66 359.626 115.66H361.677C361.877 115.66 362.05 115.732 362.195 115.879C362.342 116.024 362.414 116.197 362.414 116.397C362.414 116.471 362.405 116.533 362.387 116.588L354.706 134.412C354.651 134.557 354.542 134.703 354.378 134.849C354.214 134.995 354.022 135.068 353.803 135.068H351.754C351.554 135.068 351.381 134.995 351.234 134.849C351.089 134.703 351.015 134.529 351.015 134.329C351.015 134.256 351.025 134.193 351.043 134.137L353.203 129.108Z" fill="#00235D"/>
<path d="M368.565 123.614C368.565 123.814 368.492 123.987 368.347 124.134C368.201 124.279 368.028 124.353 367.827 124.353H365.749C365.548 124.353 365.376 124.279 365.231 124.134C365.084 123.987 365.012 123.814 365.012 123.614V111.477C365.012 111.277 365.084 111.103 365.231 110.958C365.376 110.811 365.548 110.739 365.749 110.739H367.827C368.028 110.739 368.201 110.811 368.347 110.958C368.492 111.103 368.565 111.277 368.565 111.477V123.614ZM367.964 125.993C368.164 125.993 368.337 126.065 368.484 126.211C368.629 126.357 368.703 126.53 368.703 126.73V129.135C368.703 129.337 368.629 129.509 368.484 129.655C368.337 129.801 368.164 129.874 367.964 129.874H365.612C365.412 129.874 365.239 129.801 365.095 129.655C364.947 129.509 364.876 129.337 364.876 129.135V126.73C364.876 126.53 364.947 126.357 365.095 126.211C365.239 126.065 365.412 125.993 365.612 125.993H367.964Z" fill="#00235D"/>
</g>
<mask id="mask16_297_19426" style="mask-type:luminance" maskUnits="userSpaceOnUse" x="0" y="0" width="667" height="667">
<path d="M0 6.10352e-05H666.667V666.667H0V6.10352e-05Z" fill="white"/>
</mask>
<g mask="url(#mask16_297_19426)">
<path d="M135.291 482.941L133.179 464.135L154.596 462.207C154.596 462.207 153.691 476.703 153.82 483.352C153.882 486.485 156.096 492.38 156.096 492.38C156.096 492.38 147.131 497.033 142.478 495.131C137.824 493.227 134.747 485.892 134.858 484.548C134.97 483.205 135.291 482.941 135.291 482.941Z" fill="#FFBEA7"/>
<path d="M180.923 512.536C181.218 512.541 181.441 515.267 179.809 516.603C177.926 518.145 171.946 521.095 164.774 520.055C157.602 519.015 153.75 516.756 150.918 514.336C148.086 511.916 144.115 508.501 140.877 507.74C137.869 507.031 133.819 504.551 132.87 503.615C131.919 502.679 132.13 498.592 132.13 498.592L180.923 512.536Z" fill="#091B3D"/>
<path d="M135.289 482.909C135.289 482.909 134.386 482.904 134.183 483.847C133.941 484.969 133.641 488.241 133.13 490.083C132.423 492.641 131.882 497.9 132.239 500.001C132.595 502.103 138.287 504.72 141.413 505.955C144.603 507.216 148.275 509.765 151.49 512.471C154.817 515.272 161.87 518.249 166.555 518.296C172.101 518.352 178.375 516.692 179.853 514.185C181.681 511.084 183.038 507.468 174.889 503.575C173.346 502.837 167.939 499.557 166.098 498.371C161.115 495.16 157.623 492.232 155.407 486.664C155.149 486.013 154.878 485.292 154.257 484.953C153.782 484.692 153.202 484.719 152.662 484.783C151.289 484.949 145.813 485.596 144.554 486.16C143.441 486.66 141.865 487.235 141.862 488.627C141.862 489.111 141.995 489.585 142.146 490.047C142.239 490.332 142.309 490.711 142.054 490.875C141.813 491.029 141.499 490.843 141.289 490.651C140.442 489.876 139.83 488.892 139.122 487.993C138.742 487.512 137.534 485.972 137.05 485.589C136.613 485.24 136.047 485.06 135.659 484.667C135.169 484.168 135.301 483.563 135.289 482.909Z" fill="#9ED9EB"/>
<path d="M151.49 512.471C150.078 511.282 148.576 510.13 147.067 509.098V509.091C147.067 509.091 156.627 515.044 160.582 512.486C163.13 510.836 161.971 508.759 161.923 508.102C161.874 507.443 170.844 502.958 173.294 502.714C173.968 503.096 174.526 503.424 174.888 503.575C181.26 506.211 182.054 509.486 180.91 513.564C179.432 516.071 173.816 518.588 166.651 518.464C161.966 518.384 154.816 515.272 151.49 512.471Z" fill="#00235D"/>
<path d="M161.282 506.174C166.356 508.275 164.158 509.178 162.724 509.354C161.288 509.531 152.777 504.434 147.605 500.255C142.212 495.897 138.053 490.099 136.049 488.498C135.302 487.902 134.5 487.17 133.786 486.487C133.941 485.382 134.069 484.375 134.182 483.847C134.386 482.903 135.289 482.909 135.289 482.909C135.301 483.562 135.169 484.167 135.66 484.666C136.048 485.061 136.612 485.241 137.05 485.589C137.533 485.973 138.742 487.511 139.122 487.993C139.83 488.891 140.442 489.875 141.289 490.65C145.649 496.305 156.209 504.073 161.282 506.174Z" fill="#00235D"/>
<path d="M162.374 508.608C162.26 508.606 162.148 508.568 162.055 508.489C161.842 508.312 161.815 507.998 161.998 507.788C163.472 506.073 170.387 502.062 174.139 502.534C174.418 502.568 174.614 502.818 174.578 503.09C174.544 503.362 174.319 503.549 174.014 503.522C170.508 503.09 163.938 507.073 162.768 508.432C162.667 508.55 162.52 508.61 162.374 508.608Z" fill="#091B3D"/>
<path d="M157.965 505.829C157.852 505.827 157.74 505.789 157.648 505.71C157.435 505.533 157.408 505.219 157.589 505.009C159.063 503.295 165.975 499.289 169.732 499.757C170.009 499.791 170.205 500.041 170.169 500.313C170.136 500.585 169.889 500.779 169.605 500.745C166.099 500.318 159.529 504.294 158.36 505.653C158.259 505.771 158.112 505.831 157.965 505.829Z" fill="#091B3D"/>
<path d="M153.553 503.193C153.441 503.191 153.327 503.153 153.235 503.074C153.021 502.897 152.997 502.583 153.177 502.373C154.653 500.658 161.566 496.645 165.319 497.121C165.597 497.154 165.793 497.405 165.757 497.677C165.723 497.949 165.481 498.143 165.193 498.109C161.686 497.677 155.117 501.658 153.947 503.017C153.846 503.135 153.699 503.195 153.553 503.193Z" fill="#091B3D"/>
<path d="M149.475 500.198C149.362 500.197 149.25 500.158 149.158 500.08C148.943 499.904 148.919 499.589 149.099 499.378C150.573 497.664 157.502 493.656 161.241 494.126C161.519 494.161 161.715 494.41 161.679 494.682C161.645 494.956 161.402 495.148 161.114 495.116C157.613 494.686 151.039 498.664 149.87 500.022C149.769 500.141 149.622 500.201 149.475 500.198Z" fill="#091B3D"/>
<path d="M145.481 497.205C145.371 497.204 145.261 497.167 145.169 497.092C144.953 496.917 144.922 496.603 145.099 496.391C147.129 493.959 154.353 490.635 158.105 491.104C158.382 491.137 158.579 491.388 158.543 491.66C158.509 491.933 158.263 492.119 157.978 492.092C154.599 491.672 147.682 494.868 145.881 497.024C145.779 497.147 145.629 497.208 145.481 497.205Z" fill="#091B3D"/>
<path d="M99.796 491.77L104.891 469.186L82.612 465.71L82.2547 488.005C82.2547 488.005 80.552 494.001 81.808 496.062C83.0627 498.125 96.448 500.293 97.6747 498.92C98.9013 497.548 99.796 491.77 99.796 491.77Z" fill="#FFBEA7"/>
<path d="M97.5725 527.361C96.9872 532.426 95.9245 535.702 93.7325 538.446C91.5392 541.19 87.6352 541.658 83.7699 540.303C79.9045 538.947 75.0139 535.991 74.1099 531.449C73.2059 526.906 73.5805 523.915 74.7005 519.287L97.5725 527.361Z" fill="#091B3D"/>
<path d="M82.2541 488.006C80.6381 487.921 81.0755 491.909 80.3141 498.739C79.4901 506.129 76.1581 511.919 74.9728 517.845C73.6195 524.613 73.8768 527.743 76.3995 532.245C78.9208 536.747 88.3728 542.017 93.4235 536.63C97.5395 532.238 97.9648 526.862 97.9488 519.935C97.9328 512.775 97.8568 507.731 98.4501 502.371C99.0168 497.249 101.166 492.515 99.7955 491.77C99.6515 492.515 98.2781 497.703 97.3755 497.621C97.3235 496.951 97.3701 496.338 97.4528 495.674C97.5248 495.095 97.5008 494.451 97.0928 493.954C96.6821 493.454 95.1421 492.829 94.4955 492.634C92.9248 492.162 90.1168 491.575 88.5141 491.25C87.7155 491.087 86.9115 490.955 86.1061 490.865C85.4528 490.791 84.6821 490.746 84.0528 490.873C83.6675 490.95 83.3048 491.146 83.1475 491.466C83.0315 491.702 83.0368 491.978 83.0248 492.242C83.0008 492.719 82.9101 493.187 82.7541 493.633C82.6848 493.829 82.5141 494.058 82.2861 493.981C82.1008 493.918 82.0368 493.702 82.0435 493.531C82.0781 492.699 82.1995 488.442 82.2541 488.006Z" fill="#9ED9EB"/>
<path d="M75.4347 515.928C75.2293 516.904 73.956 523.371 75.9213 524.805C78.0493 526.357 79.5053 521.329 79.5053 521.329C79.5053 521.329 84.712 520.564 92.0493 524.379C91.6133 525.4 92.5933 529.064 94.6827 528.571C96.7573 528.081 97.932 520.629 97.948 520.532C97.9347 527.169 97.42 532.367 93.4227 536.629C88.3733 542.016 78.92 536.747 76.3987 532.244C73.876 527.743 73.6187 524.613 74.9733 517.844C75.1093 517.167 75.2653 516.535 75.4347 515.928Z" fill="#00235D"/>
<path d="M80.0704 521.842C79.9157 524.33 77.1797 523.149 77.2317 519.616C77.2837 516.082 79.1371 507.502 79.8384 501.724C80.3064 493.413 80.6384 487.921 82.2544 488.005C82.2437 488.089 82.2424 488.175 82.2331 488.259C82.2331 488.259 82.0664 492.995 82.0437 493.532C81.7544 498.609 81.6877 508.474 80.9664 513.061C80.2437 517.648 80.2251 519.354 80.0704 521.842Z" fill="#00235D"/>
<path d="M91.1853 524.204C91.8333 521.821 92.36 520.221 93.148 515.649C93.9307 511.111 96.6467 502.024 97.9933 497.137C98.428 496.336 99.796 491.771 99.796 491.771C100.913 492.087 99.796 496.44 99.2733 498.477C98.7493 500.515 98.1107 502.699 97.456 505.621C95.7853 511.381 95.6253 520.028 94.548 523.344C93.4707 526.659 90.5373 526.587 91.1853 524.204Z" fill="#00235D"/>
<path d="M92.1976 524.6C92.1229 524.584 92.0509 524.556 91.9829 524.517C91.9269 524.481 86.2109 521.119 79.6349 521.859C79.3109 521.893 78.9936 521.684 78.9229 521.393C78.8509 521.101 79.0563 520.836 79.3789 520.799C86.4149 520.008 92.3323 523.497 92.5829 523.647C92.8683 523.817 92.9669 524.151 92.7989 524.391C92.6736 524.573 92.4309 524.649 92.1976 524.6Z" fill="#091B3D"/>
<path d="M93.8073 519.356C93.7407 519.341 93.6753 519.319 93.6113 519.283C93.5473 519.248 87.11 515.715 79.7847 516.313C79.4607 516.335 79.15 516.123 79.0887 515.828C79.0273 515.535 79.2433 515.275 79.5673 515.248C87.3153 514.62 93.8967 518.239 94.174 518.391C94.466 518.555 94.5753 518.885 94.4207 519.132C94.2993 519.324 94.05 519.408 93.8073 519.356Z" fill="#091B3D"/>
<path d="M80.4277 511.223C80.2037 511.175 80.0064 511.017 79.9384 510.806C79.8477 510.515 80.0291 510.235 80.3451 510.179C87.6704 508.897 94.6437 513.022 94.9384 513.199C95.2251 513.37 95.3224 513.702 95.1544 513.943C94.9877 514.182 94.6184 514.231 94.3384 514.067C94.2717 514.029 87.4971 510.029 80.6811 511.23C80.5957 511.245 80.5104 511.241 80.4277 511.223Z" fill="#091B3D"/>
<path d="M81.0796 506.429C80.8583 506.383 80.6649 506.228 80.5943 506.021C80.4969 505.731 80.6716 505.448 80.9876 505.388C89.0516 503.841 95.6023 508.217 95.8769 508.404C96.1516 508.591 96.2249 508.925 96.0409 509.155C95.8583 509.383 95.4796 509.417 95.2129 509.231C95.1529 509.189 88.8476 504.995 81.3423 506.433C81.2543 506.449 81.1649 506.448 81.0796 506.429Z" fill="#091B3D"/>
<path d="M81.8361 501.047C81.6188 501 81.4268 500.85 81.3535 500.646C81.2521 500.358 81.4215 500.072 81.7361 500.007C89.2975 498.451 96.4255 502.987 96.7241 503.183C97.0041 503.363 97.0855 503.699 96.9081 503.932C96.7335 504.166 96.3641 504.212 96.0841 504.026C96.0148 503.982 89.1281 499.602 82.1068 501.048C82.0161 501.067 81.9241 501.066 81.8361 501.047Z" fill="#091B3D"/>
<path d="M90.8079 317.615C83.7252 334.97 88.3719 358.194 87.6532 377.111C86.7932 399.743 86.3932 417.484 86.3932 417.484C86.1199 420.528 84.3865 424.788 82.9745 439.8C81.4852 455.638 81.5412 478.247 81.5412 478.247C81.5412 478.247 94.9292 483.963 103.249 481.01C103.249 481.01 112.191 447.095 116.516 428.443C120.611 410.791 123.627 383.188 123.627 383.188L128.487 409.78C128.487 409.78 127.876 421.206 128.161 429.202C128.495 438.502 133.515 474.107 133.515 474.107C133.515 474.107 145.953 481.556 154.608 474.455C154.608 474.455 158.821 422.196 159.101 411.01C159.653 389.07 160.281 345.919 157.688 317.615H90.8079Z" fill="#00235D"/>
<path d="M123.626 383.188L129.168 348.4C129.168 348.4 141.156 346.4 146.334 341.416C146.334 341.416 142.462 349.124 132.954 351.675L127.142 383.892L128.486 409.78L123.626 383.188Z" fill="#091B3D"/>
<path d="M81.3115 479.021C85.0501 481.953 95.9381 484.452 103.39 481.757L104.891 475.467C99.2648 477.361 87.6768 476.16 81.4395 472.309L81.3115 479.021Z" fill="#9ED9EB"/>
<path d="M133.515 474.838C136.038 477.397 147.731 479.514 154.638 475.467L155.148 469.153C149.911 472.07 137.88 471.571 132.75 468.577L133.515 474.838Z" fill="#9ED9EB"/>
<path d="M87.2635 380.216C87.2635 380.216 86.1035 408.419 86.1835 410.472C86.2635 412.525 101.593 416.587 101.991 415.281C102.653 413.108 102.487 408.261 103.811 384.899C91.1008 383.255 87.2635 380.216 87.2635 380.216Z" fill="#9ED9EB"/>
<path d="M101.42 392.937C100.959 392.782 100.455 392.829 99.9737 392.817C99.4111 392.802 98.8497 392.778 98.2884 392.732C97.1017 392.632 95.9217 392.45 94.7577 392.189C93.4444 391.894 92.1471 391.497 90.8871 391.014C89.8604 390.62 88.8871 390.089 87.8591 389.704C87.7617 389.668 87.7457 389.853 87.8084 389.9C88.7831 390.612 89.9391 391.1 91.0471 391.546C92.0911 391.966 93.1591 392.306 94.2471 392.577C95.4071 392.866 96.5831 393.076 97.7697 393.202C98.3617 393.266 98.9564 393.31 99.5524 393.332C100.115 393.353 100.919 393.482 101.428 393.198C101.506 393.154 101.515 392.969 101.42 392.937Z" fill="#00235D"/>
<path d="M94.4599 389.861C94.2905 390.09 93.9239 390.141 93.6879 390.005C93.2972 389.78 93.3772 389.021 93.8559 388.97C94.0065 388.956 94.1652 388.989 94.2852 389.084C94.4879 389.242 94.6305 389.63 94.4599 389.861ZM94.7505 389.001C94.6039 388.71 94.4905 388.53 94.1599 388.492C93.8919 388.46 93.6105 388.528 93.3879 388.688C93.1785 388.84 93.0385 389.069 93.0065 389.328C92.9532 389.768 93.1799 390.177 93.5559 390.388C93.8812 390.57 94.3412 390.598 94.6532 390.369C94.8585 390.218 94.9172 389.973 94.9199 389.725C94.9225 389.477 94.8625 389.22 94.7505 389.001Z" fill="#00235D"/>
<path d="M138.842 244.17C146.562 245.562 150.305 247.531 156.106 256.839C161.908 266.146 173.697 292.718 173.697 292.718L198.988 312.127L183.74 318.978C184.182 319.614 180.142 318.067 170.032 312.611C161.042 307.761 160.272 307.742 154.373 297.493C149.133 288.386 141.322 275.201 141.322 275.201L138.842 244.17Z" fill="#FFBEA7"/>
<path d="M88.4709 257.328C99.0283 257.328 107.586 248.769 107.586 238.213V190.499H104.416C95.6096 190.499 88.4709 197.637 88.4709 206.444V257.328Z" fill="#00235D"/>
<path d="M97.8949 196.501C97.6389 197.291 97.4669 198.111 97.3829 198.935C97.3296 199.466 97.3083 200.002 97.3803 200.529C97.7176 203.011 100.17 204.829 102.624 204.869C105.079 204.907 107.4 203.453 108.936 201.487C110.98 198.875 114.032 192.719 110.058 190.53C107.45 189.095 104.059 189.483 101.62 191.227C99.8469 192.495 98.5749 194.398 97.8949 196.501Z" fill="#2772F0"/>
<mask id="mask17_297_19426" style="mask-type:luminance" maskUnits="userSpaceOnUse" x="97" y="189" width="15" height="16">
<path d="M97.3341 189.652H111.993V204.869H97.3341V189.652Z" fill="white"/>
</mask>
<g mask="url(#mask17_297_19426)">
<g opacity="0.25">
<path d="M97.8949 196.501C97.6389 197.291 97.4669 198.111 97.3829 198.935C97.3296 199.466 97.3083 200.002 97.3803 200.529C97.7176 203.011 100.17 204.829 102.624 204.869C105.079 204.907 107.4 203.453 108.936 201.487C110.98 198.875 114.032 192.719 110.058 190.53C107.45 189.095 104.059 189.483 101.62 191.227C99.8469 192.495 98.5749 194.398 97.8949 196.501Z" fill="black"/>
</g>
</g>
<path d="M96.7981 298.815C96.3555 300.763 91.7141 310.856 88.9435 321.682C105.599 343.155 154.926 331.438 158.535 319.354C157.759 304.994 157.097 268.724 153.951 262.166C148.326 250.432 138.842 244.17 138.842 244.17C134.359 243.219 129.681 242.911 128.319 242.774C125.559 242.492 119.867 241.787 112.543 243.178C109.13 243.824 103.714 245.198 98.2661 247.47C92.4901 249.878 91.2035 257.586 93.0795 270.134C93.9408 275.895 99.8781 285.27 96.7981 298.815Z" fill="#9ED9EB"/>
<path d="M226.681 259.707L211.477 246.588L223.055 185.844L200.58 166.452L183.071 172.552L174.965 215.083L157.98 200.427L219.209 101.644L195.049 80.7976L177.54 86.8976L112.06 191.918L107.587 215.394L165.4 265.28L158.7 300.431L181.175 319.824L198.683 313.724L201.911 296.784L203.077 297.791L220.585 291.691L226.681 259.707Z" fill="#2772F0"/>
<mask id="mask18_297_19426" style="mask-type:luminance" maskUnits="userSpaceOnUse" x="107" y="80" width="120" height="240">
<path d="M107.586 80.7974H226.681V319.824H107.586V80.7974Z" fill="white"/>
</mask>
<g mask="url(#mask18_297_19426)">
<g opacity="0.300003">
<path d="M226.681 259.707L211.477 246.588L223.055 185.844L200.58 166.452L183.071 172.552L174.965 215.083L157.98 200.427L219.209 101.644L195.049 80.7977L177.54 86.8977L112.06 191.918L107.587 215.394L165.4 265.28L158.7 300.431L181.175 319.824L198.683 313.724L201.911 296.784L203.077 297.791L220.585 291.691L226.681 259.707Z" fill="black"/>
</g>
</g>
<path d="M193.969 252.688L205.545 191.946L183.072 172.552L171.496 233.296L140.472 206.527L201.701 107.744L177.54 86.8976L112.06 191.918L107.586 215.394L165.4 265.28L158.701 300.431L181.174 319.824L187.873 284.672L203.077 297.791L209.173 265.807L193.969 252.688Z" fill="#2772F0"/>
<mask id="mask19_297_19426" style="mask-type:luminance" maskUnits="userSpaceOnUse" x="107" y="86" width="103" height="234">
<path d="M107.586 86.8974H209.173V319.824H107.586V86.8974Z" fill="white"/>
</mask>
<g mask="url(#mask19_297_19426)">
<g opacity="0.300003">
<path d="M193.969 252.688L205.545 191.946L183.072 172.552L171.496 233.296L140.472 206.527L201.701 107.744L177.54 86.8976L112.06 191.918L107.586 215.394L165.4 265.28L158.701 300.431L181.174 319.824L187.873 284.672L203.077 297.791L209.173 265.807L193.969 252.688Z" fill="white"/>
</g>
</g>
<path d="M177.54 86.898L201.7 107.745L219.208 101.645L195.048 80.798L177.54 86.898Z" fill="#2772F0"/>
<mask id="mask20_297_19426" style="mask-type:luminance" maskUnits="userSpaceOnUse" x="177" y="80" width="43" height="28">
<path d="M177.54 80.7974H219.209V107.745H177.54V80.7974Z" fill="white"/>
</mask>
<g mask="url(#mask20_297_19426)">
<g opacity="0.5">
<path d="M177.54 86.898L201.7 107.745L219.208 101.645L195.048 80.798L177.54 86.898Z" fill="white"/>
</g>
</g>
<path d="M183.071 172.553L200.579 166.453L223.054 185.845L205.545 191.945L183.071 172.553Z" fill="#2772F0"/>
<mask id="mask21_297_19426" style="mask-type:luminance" maskUnits="userSpaceOnUse" x="183" y="166" width="41" height="26">
<path d="M183.071 166.452H223.053V191.945H183.071V166.452Z" fill="white"/>
</mask>
<g mask="url(#mask21_297_19426)">
<g opacity="0.5">
<path d="M183.071 172.553L200.579 166.453L223.054 185.845L205.545 191.945L183.071 172.553Z" fill="white"/>
</g>
</g>
<path d="M193.969 252.688L211.478 246.588L226.681 259.707L209.173 265.807L193.969 252.688Z" fill="#2772F0"/>
<mask id="mask22_297_19426" style="mask-type:luminance" maskUnits="userSpaceOnUse" x="193" y="246" width="34" height="20">
<path d="M193.969 246.588H226.681V265.807H193.969V246.588Z" fill="white"/>
</mask>
<g mask="url(#mask22_297_19426)">
<g opacity="0.5">
<path d="M193.969 252.688L211.478 246.588L226.681 259.707L209.173 265.807L193.969 252.688Z" fill="white"/>
</g>
</g>
<path d="M140.472 206.527L157.981 200.427L174.965 215.083L171.496 233.296L140.472 206.527Z" fill="#2772F0"/>
<mask id="mask23_297_19426" style="mask-type:luminance" maskUnits="userSpaceOnUse" x="140" y="200" width="35" height="34">
<path d="M140.472 200.427H174.965V233.296H140.472V200.427Z" fill="white"/>
</mask>
<g mask="url(#mask23_297_19426)">
<g opacity="0.5">
<path d="M140.472 206.527L157.981 200.427L174.965 215.083L171.496 233.296L140.472 206.527Z" fill="white"/>
</g>
</g>
<path d="M183.244 259.906C181.941 259.542 184.953 254.42 184.308 251.066C183.988 249.403 181.934 247.862 181.197 250.094C179.652 254.771 177.614 256.476 176.254 259.291" fill="#FFBEA7"/>
<path d="M176.254 259.29C174.894 262.105 173.405 264.009 169.556 266.72C165.468 269.597 141.364 274.672 141.364 274.672C141.364 274.672 135.66 271.288 125.956 264.797C113.657 256.572 102.129 246.765 98.2664 247.469C86.0824 250.941 88.9424 268.705 93.6757 272.681C96.7984 275.305 100.4 277.692 113.038 284.458C126.733 291.79 128.726 292.069 132.737 293.766C139.824 296.768 141.294 296.169 150.217 293.006C159.141 289.844 164.394 287.061 176.254 281.188C182.272 278.208 184.468 276.088 189.006 273.041C191.258 271.53 192.465 270.446 193.677 268.994C194.888 267.542 195.873 265.858 196.26 264.006C196.332 263.658 196.354 263.322 196.525 263.006C196.688 262.704 196.89 262.426 197.094 262.152C197.482 261.632 197.904 261.12 198.13 260.504C198.369 259.85 198.37 259.145 198.476 258.465C198.525 258.148 198.522 257.836 198.612 257.522C198.701 257.205 198.836 256.901 198.981 256.606C199.358 255.842 199.829 255.068 199.916 254.209C199.997 253.409 199.412 253.004 199.412 253.004C199.412 253.004 200.056 252.097 200.26 251.776C200.542 251.325 200.777 250.845 200.957 250.344C201.028 250.146 201.088 249.917 200.98 249.737C200.916 249.632 200.806 249.565 200.697 249.508C198.946 248.605 197.262 249.694 195.89 250.754C192.318 253.51 190.654 255.984 186.776 258.345C184.666 259.629 184.126 259.921 183.244 259.905" fill="#FFBEA7"/>
<path d="M199.377 253.249C198.761 254.194 198.06 255.078 197.356 255.955C196.655 256.835 195.924 257.687 195.217 258.557C194.859 258.983 194.523 259.435 194.137 259.861C193.752 260.278 193.361 260.686 192.949 261.071C192.133 261.851 191.291 262.599 190.403 263.295L191.563 262.067C191.952 261.665 192.34 261.258 192.719 260.845C193.093 260.429 193.48 260.023 193.837 259.598C194.2 259.182 194.532 258.729 194.892 258.291C195.612 257.422 196.352 256.575 197.111 255.746L199.377 253.249Z" fill="#FF9A79"/>
<path d="M198.653 257.387C198.329 258.193 197.913 259.003 197.439 259.728C196.966 260.456 196.454 261.156 195.925 261.843C195.39 262.524 194.841 263.195 194.261 263.839C193.683 264.485 193.078 265.109 192.418 265.675C192.959 264.997 193.475 264.307 194.009 263.628L195.593 261.585L197.171 259.54C197.687 258.851 198.185 258.117 198.653 257.387Z" fill="#FF9A79"/>
<path d="M143.55 217.467L145.113 216.985C152.134 213.215 151.781 204.056 150.076 199.283C146.27 188.629 134.754 184.64 127.629 184.251C114.117 183.512 107.518 187.001 106.124 194C104.293 193.845 101.777 195.32 100.258 197.387C96.9343 201.911 92.9823 217.672 110.498 234.296L143.55 217.467Z" fill="#00235D"/>
<path d="M107.243 229.009C104.796 229.369 102.908 228.087 101.497 226.407C98.3668 222.678 98.2068 219.001 99.8281 216.619C101.16 214.663 104.301 213.503 106.413 214.946C108.672 216.487 108.699 217.675 109.509 219.349C110.341 221.067 113.709 221.013 114.777 214.429C115.773 208.289 115.493 201.838 118.621 199.171C123.293 195.187 128.091 196.563 129.793 199.09C131.747 196.285 135.964 196.086 138.981 197.858C141.187 199.154 143.483 201.209 143.235 208.122C143.159 210.25 144.581 214.238 144.735 217.229C145.349 229.205 143.365 232.165 140.172 235.063C138.264 236.794 135.249 237.942 130.764 237.969L130.924 244.085C130.924 244.085 136.387 252.047 136.577 255.979L110.876 243.77L110.247 227.247C110.247 227.247 109.568 228.667 107.243 229.009Z" fill="#FFBEA7"/>
<path d="M137.692 204.149L141.223 207.272C140.39 208.286 138.924 208.412 137.95 207.548C136.975 206.686 136.86 205.164 137.692 204.149Z" fill="#091B3D"/>
<path d="M125.562 208.061L121.203 210.598C120.451 209.41 120.818 207.881 122.022 207.181C123.225 206.479 124.81 206.874 125.562 208.061Z" fill="#091B3D"/>
<path d="M118.659 199.967C117.602 201.308 116.83 202.656 116.99 207.469C117.057 209.475 116.906 214.148 115.563 216.937C114.389 219.375 113.169 220.825 110.571 221.28C109.273 221.507 107.079 221.36 105.883 220.807C104.962 220.38 102.374 218.555 102.689 215.879C103.102 216.341 103.857 216.928 104.587 217.217C105.138 217.435 105.715 217.596 106.307 217.629C108.067 217.727 109.743 216.637 110.73 215.176C112.477 212.588 112.359 209.099 112.894 206.132C113.571 202.36 114.227 198.081 117.631 196.212C121.655 194.003 128.922 194.984 129.794 199.089C127.043 196.464 121.383 196.513 118.659 199.967Z" fill="#00235D"/>
<path d="M131.739 211.047L133.127 222.771L139.486 220.297L131.739 211.047Z" fill="#FF9A79"/>
<path d="M127.691 214.737C127.691 215.755 126.865 216.581 125.847 216.581C124.827 216.581 124.002 215.755 124.002 214.737C124.002 213.718 124.827 212.891 125.847 212.891C126.865 212.891 127.691 213.718 127.691 214.737Z" fill="#091B3D"/>
<path d="M140.826 212.892C140.826 213.911 140 214.738 138.982 214.738C137.962 214.738 137.136 213.911 137.136 212.892C137.136 211.874 137.962 211.048 138.982 211.048C140 211.048 140.826 211.874 140.826 212.892Z" fill="#091B3D"/>
<path d="M131.991 226.462C131.991 227.48 131.166 228.307 130.147 228.307C129.127 228.307 128.302 227.48 128.302 226.462C128.302 225.443 129.127 224.616 130.147 224.616C131.166 224.616 131.991 225.443 131.991 226.462Z" fill="#C76668"/>
<path d="M128.368 225.999C128.329 226.148 128.303 226.301 128.303 226.461C128.303 227.481 129.128 228.307 130.147 228.307C130.608 228.307 131.025 228.131 131.349 227.851C130.703 226.836 129.623 226.14 128.368 225.999Z" fill="#FF9090"/>
<path d="M130.764 237.969C125.562 237.773 120.813 236.914 117.864 235.1C116.501 234.261 114.034 232.241 112.445 229.238C112.445 229.238 112.712 234.296 117.342 237.565C122.028 240.873 130.837 241.433 130.837 241.433L130.764 237.969Z" fill="#FF9A79"/>
<path d="M201.78 315.798C204.477 315.779 204.628 315.491 205.034 314.146C205.441 312.799 205.816 310.178 204.061 307.907C202.882 306.381 201.768 304.783 200.768 304.279C199.768 303.777 198.573 305.69 199.593 308.055C201.201 311.781 200.317 312.393 200.317 312.393C200.317 312.393 198.832 308.963 198.038 307.73C197.244 306.497 195.11 304.743 193.916 303.547C192.721 302.351 190.785 303.35 191.848 306.075C191.848 306.075 190.337 304.569 189.654 303.889C188.118 302.357 186.768 302.437 186.684 304.577C186.664 305.085 186.694 305.747 187.233 306.574C187.233 306.574 185.894 304.726 185.253 305.134C183.413 306.302 183.781 307.778 185.408 312.295C186.792 316.141 186.254 318.102 184.729 318.687L183.741 318.978C183.741 318.978 185.616 319.805 187.422 320.441C188.748 320.906 190.048 321.171 191.201 319.69C191.201 319.69 192.637 321.751 193.984 320.963C195.332 320.174 196.322 318.515 196.322 318.515C196.322 318.515 197.777 319.281 199.221 318.121C200.665 316.961 200.893 315.777 200.893 315.777L201.78 315.798Z" fill="#FFBEA7"/>
<path d="M191.848 306.076C192.502 306.741 193.174 307.323 193.724 308.147C194.245 309.02 194.401 309.944 194.614 310.825C194.985 312.616 195.296 314.421 195.364 316.271C194.668 314.551 194.216 312.785 193.824 311.005C193.63 310.115 193.493 309.203 193.169 308.448C192.792 307.696 192.238 306.907 191.848 306.076Z" fill="#FF9A79"/>
<path d="M187.234 306.574C188.024 307.179 188.667 308.026 189.074 308.954C189.504 309.872 189.78 310.839 190.026 311.8C190.479 313.731 190.792 315.684 190.835 317.68C190.162 315.803 189.707 313.891 189.238 311.992C188.763 310.091 188.379 308.216 187.234 306.574Z" fill="#FF9A79"/>
</g>
</svg>
