<svg width="20" height="20" viewBox="0 0 20 20" fill="none" xmlns="http://www.w3.org/2000/svg">
<path fill-rule="evenodd" clip-rule="evenodd" d="M10.8745 2.11351C10.3017 1.96216 9.6983 1.96216 9.1254 2.11351C8.33733 2.32172 7.69243 2.81417 7.28768 3.45713C9.08524 3.18389 10.9147 3.18388 12.7122 3.45712C12.3075 2.81416 11.6626 2.32172 10.8745 2.11351ZM8.6145 0.179858C6.76707 0.667957 5.37648 2.12451 4.95532 3.91765C2.81848 4.5262 1.12496 6.18555 0.511359 8.3358L0.418369 8.6616C-0.142161 10.6258 -0.137911 12.7158 0.421889 14.6774C1.13895 17.1902 3.23045 19.1017 5.81778 19.6006C8.5798 20.1331 11.4202 20.1331 14.1822 19.6006C16.7696 19.1017 18.8611 17.1902 19.5781 14.6774C20.1379 12.7158 20.1422 10.6258 19.5816 8.6616L19.4886 8.3358C18.875 6.18553 17.1815 4.52617 15.0446 3.91763C14.6234 2.12451 13.2328 0.667956 11.3854 0.179858C10.4777 -0.0599525 9.5222 -0.0599525 8.6145 0.179858ZM13.0377 5.5423C11.0316 5.1555 8.9684 5.1555 6.96229 5.5423L5.88873 5.74929C4.22205 6.07064 2.89026 7.2878 2.43458 8.8846L2.40165 9H5V8.5C5 7.94772 5.44772 7.5 6 7.5C6.55228 7.5 7 7.94772 7 8.5V9H13V8.5C13 7.94772 13.4477 7.5 14 7.5C14.5523 7.5 15 7.94772 15 8.5V9H17.5983L17.5654 8.8846C17.1097 7.2878 15.7779 6.07064 14.1113 5.74929L13.0377 5.5423ZM13 11V12C13 12.5523 13.4477 13 14 13C14.5523 13 15 12.5523 15 12V11H17.9757C18.053 12.0489 17.9456 13.1097 17.6549 14.1286C17.1463 15.9109 15.6559 17.2796 13.8036 17.6367C11.2917 18.1211 8.7083 18.1211 6.19643 17.6367C4.34414 17.2796 2.85374 15.9109 2.34511 14.1286C2.05435 13.1097 1.94699 12.0489 2.02427 11H5V12C5 12.5523 5.44772 13 6 13C6.55228 13 7 12.5523 7 12V11H13Z" fill="#2772F0"/>
</svg>
