<svg width="50" height="50" viewBox="0 0 50 50" fill="none" xmlns="http://www.w3.org/2000/svg">
<path d="M41.6429 2H7.35714C4.4 2 2 4.4 2 7.35714V41.6429C2 44.6 4.4 47 7.35714 47H41.6429C44.6 47 47 44.6 47 41.6429V7.35714C47 4.4 44.6 2 41.6429 2ZM38.1286 33.0714L34.1321 33.0607C34.1321 33.0607 34.0464 33.0714 33.9071 33.0714C33.5857 33.0714 32.9214 32.9857 32.1393 32.45C30.7357 31.475 29.3964 29.0536 28.3357 29.0536C28.2607 29.0536 28.1964 29.0643 28.1321 29.0857C27.2107 29.375 26.9321 30.2964 26.9321 31.4214C26.9321 31.8179 26.6536 32 25.9036 32H23.8357C21.5214 32 19.2821 31.9464 16.7643 29.1929C13.0571 25.1321 9.58571 17.9107 9.58571 17.9107C9.58571 17.9107 9.39286 17.4929 9.59643 17.2464C9.78929 17.0214 10.2393 17 10.4107 17C10.4536 17 10.475 17 10.475 17H14.7607C14.7607 17 15.1571 17.075 15.4464 17.2893C15.6929 17.4714 15.8214 17.8036 15.8214 17.8036C15.8214 17.8036 16.55 19.2179 17.4607 20.8143C18.9929 23.45 19.8179 24.3286 20.4071 24.3286C20.5036 24.3286 20.6 24.3071 20.6964 24.2536C21.575 23.7714 21.3179 19.8714 21.3179 19.8714C21.3179 19.8714 21.3286 18.4571 20.8679 17.8357C20.5143 17.3429 19.8393 17.2036 19.5393 17.1607C19.3036 17.1286 19.6893 16.5714 20.2036 16.3143C20.8679 15.9929 21.9714 15.9286 23.3 15.9286H23.9429C25.1964 15.95 25.2286 16.0786 25.7214 16.1964C27.2 16.55 26.6964 17.9321 26.6964 21.2429C26.6964 22.3036 26.5036 23.7929 27.2643 24.2964C27.3179 24.3286 27.3929 24.35 27.4893 24.35C27.9821 24.35 29.0429 23.7179 30.7357 20.8571C31.6786 19.2286 32.4071 17.6107 32.4071 17.6107C32.4071 17.6107 32.5679 17.3214 32.8143 17.1714C33.05 17.0321 33.05 17.0321 33.3607 17.0321H33.3929C33.7357 17.0321 37.1429 17 37.8929 17H37.9786C38.6964 17 39.35 17.0107 39.4679 17.45C39.6393 18.1143 38.9429 19.3036 37.1107 21.7679C34.0893 25.8071 33.7464 25.5071 36.2536 27.8429C38.6536 30.0714 39.1464 31.1536 39.2321 31.2929C40.2286 32.9429 38.1286 33.0714 38.1286 33.0714Z" fill="#9DA4B1"/>
</svg>
