<svg width="50" height="50" viewBox="0 0 50 50" fill="none" xmlns="http://www.w3.org/2000/svg">
<path d="M46.7439 14.7423C46.3279 12.4462 44.3458 10.7741 42.0457 10.252C38.6036 9.52202 32.2333 9 25.3409 9C18.4527 9 11.9804 9.52202 8.53426 10.252C6.23817 10.7741 4.25204 12.3401 3.83605 14.7423C3.41599 17.3524 3 21.0065 3 25.7047C3 30.4029 3.41599 34.0571 3.93801 36.6672C4.35807 38.9633 6.34013 40.6354 8.63622 41.1574C12.2904 41.8874 18.5546 42.4095 25.447 42.4095C32.3393 42.4095 38.6036 41.8874 42.2577 41.1574C44.5538 40.6354 46.5359 39.0693 46.956 36.6672C47.3719 34.0571 47.894 30.2969 48 25.7047C47.7879 21.0065 47.2659 17.3524 46.7439 14.7423ZM19.7047 33.0131V18.3964L32.4413 25.7047L19.7047 33.0131Z" fill="#9DA4B1"/>
</svg>
