<svg width="50" height="50" viewBox="0 0 50 50" fill="none" xmlns="http://www.w3.org/2000/svg">
<path d="M47 11.3278C45.3411 12.0643 43.563 12.5588 41.6937 12.7833C43.6016 11.6399 45.0676 9.83025 45.755 7.67688C43.9733 8.73252 41.9918 9.50058 39.891 9.91443C38.2076 8.11877 35.8087 7 33.1538 7C28.0545 7 23.9196 11.1314 23.9196 16.2308C23.9196 16.9532 24.0037 17.6582 24.1616 18.335C16.488 17.9493 9.68763 14.2738 5.13187 8.68693C4.33575 10.0547 3.88333 11.6399 3.88333 13.3304C3.88333 16.5324 5.51064 19.3591 7.99018 21.018C6.4751 20.9689 5.0512 20.5516 3.80617 19.8606C3.80617 19.8992 3.80617 19.9378 3.80617 19.9764C3.80617 24.4515 6.99065 28.1796 11.2097 29.0318C10.4382 29.2422 9.621 29.3545 8.77929 29.3545C8.18307 29.3545 7.6044 29.2983 7.03975 29.1861C8.21814 32.8511 11.6271 35.527 15.6638 35.6007C12.5074 38.0767 8.52677 39.5497 4.19897 39.5497C3.45195 39.5497 2.71896 39.5076 2 39.4199C6.0823 42.0433 10.9362 43.5689 16.1513 43.5689C33.1328 43.5689 42.4197 29.5018 42.4197 17.304C42.4197 16.9041 42.4092 16.5008 42.3951 16.108C44.1978 14.8069 45.762 13.1796 47 11.3278Z" fill="#9DA4B1"/>
</svg>
