<svg width="50" height="50" viewBox="0 0 50 50" xmlns="http://www.w3.org/2000/svg">
<path d="M24.5 3C12.0744 3 2 13.0744 2 25.5C2 36.0431 9.26 44.865 19.0475 47.3062C18.9425 47.0025 18.875 46.65 18.875 46.2131V42.3675C17.9619 42.3675 16.4319 42.3675 16.0475 42.3675C14.5081 42.3675 13.1394 41.7056 12.4756 40.4756C11.7388 39.1087 11.6112 37.0181 9.785 35.7394C9.24312 35.3138 9.65562 34.8281 10.28 34.8938C11.4331 35.22 12.3894 36.0113 13.2894 37.185C14.1856 38.3606 14.6075 38.6269 16.2819 38.6269C17.0937 38.6269 18.3087 38.58 19.4525 38.4C20.0675 36.8381 21.1306 35.4 22.43 34.7212C14.9375 33.9506 11.3619 30.2231 11.3619 25.1625C11.3619 22.9837 12.29 20.8762 13.8669 19.1006C13.3494 17.3381 12.6988 13.7438 14.0656 12.375C17.4369 12.375 19.475 14.5612 19.9644 15.1519C21.6444 14.5762 23.4894 14.25 25.4281 14.25C27.3706 14.25 29.2231 14.5762 30.9069 15.1556C31.3906 14.5687 33.4306 12.375 36.8094 12.375C38.1819 13.7456 37.5238 17.355 37.0006 19.1138C38.5681 20.8856 39.4906 22.9875 39.4906 25.1625C39.4906 30.2194 35.9206 33.945 28.4394 34.7194C30.4981 35.7938 32 38.8125 32 41.0869V46.2131C32 46.4081 31.9569 46.5488 31.9344 46.7156C40.7019 43.6425 47 35.3175 47 25.5C47 13.0744 36.9256 3 24.5 3Z" fill="#9DA4B1"/>
</svg>
