<svg width="50" height="50" viewBox="0 0 50 50" fill="none" xmlns="http://www.w3.org/2000/svg">
<path d="M16.2955 3C8.9625 3 3 8.9625 3 16.2955V34.7045C3 42.0375 8.9625 48 16.2955 48H34.7045C42.0375 48 48 42.0375 48 34.7045V16.2955C48 8.9625 42.0375 3 34.7045 3H16.2955ZM37.7727 11.1818C38.8977 11.1818 39.8182 12.1023 39.8182 13.2273C39.8182 14.3523 38.8977 15.2727 37.7727 15.2727C36.6477 15.2727 35.7273 14.3523 35.7273 13.2273C35.7273 12.1023 36.6477 11.1818 37.7727 11.1818ZM25.5 14.25C31.708 14.25 36.75 19.292 36.75 25.5C36.75 31.708 31.708 36.75 25.5 36.75C19.292 36.75 14.25 31.708 14.25 25.5C14.25 19.292 19.292 14.25 25.5 14.25ZM25.5 16.2955C20.4273 16.2955 16.2955 20.4273 16.2955 25.5C16.2955 30.5727 20.4273 34.7045 25.5 34.7045C30.5727 34.7045 34.7045 30.5727 34.7045 25.5C34.7045 20.4273 30.5727 16.2955 25.5 16.2955Z" fill="#9DA4B1"/>
</svg>
