<svg width="50" height="50" viewBox="0 0 50 50" fill="none" xmlns="http://www.w3.org/2000/svg">
<mask id="mask0_252_14478" style="mask-type:luminance" maskUnits="userSpaceOnUse" x="0" y="0" width="50" height="50">
<path d="M0 2.98023e-06H50V50H0V2.98023e-06Z" fill="white"/>
</mask>
<g mask="url(#mask0_252_14478)">
<path d="M47 23.2402C47 35.6666 36.9264 45.7404 24.5 45.7404C12.0736 45.7404 2 35.6666 2 23.2402C2 10.8138 12.0736 0.740228 24.5 0.740228C36.9264 0.740228 47 10.8138 47 23.2402Z" fill="#9DA4B1"/>
<path d="M24.7195 37.387C24.3389 37.387 24.0275 37.0816 24.0215 36.6998C24.0155 36.3148 24.323 35.9968 24.7084 35.991C27.9546 35.9391 31.0278 34.6679 33.3623 32.4114C33.6408 32.1437 34.0815 32.1515 34.3492 32.4282C34.6174 32.7052 34.6096 33.1469 34.3329 33.4151C31.7423 35.9184 28.3319 37.3291 24.7305 37.387H24.7195Z" fill="#F8FBFC"/>
<path d="M24.2805 10.4891C23.8999 10.4891 23.5885 10.1835 23.5825 9.80138C23.5771 9.41599 23.8846 9.09877 24.2702 9.09315L24.3339 9.08947C24.3891 9.0854 24.4441 9.0823 24.5003 9.0823C24.8857 9.0823 25.1983 9.39468 25.1983 9.78027C25.1983 10.1657 24.8857 10.4782 24.5003 10.4782L24.4331 10.4819C24.3858 10.4852 24.339 10.4883 24.2909 10.4891H24.2805Z" fill="#F8FBFC"/>
<path d="M11.04 23.9383C10.6544 23.9383 10.342 23.6259 10.342 23.2403C10.342 19.1753 12.1038 15.2986 15.1755 12.6041C15.4656 12.3493 15.906 12.3789 16.1603 12.6684C16.4144 12.9584 16.3859 13.3991 16.0958 13.6532C13.3264 16.0829 11.738 19.5772 11.738 23.2403C11.738 23.6259 11.4256 23.9383 11.04 23.9383Z" fill="#F8FBFC"/>
<path d="M24.2805 37.387H24.2696C20.6675 37.3291 17.2579 35.9184 14.6678 33.4151C14.3909 33.1469 14.3831 32.7052 14.6514 32.4282C14.9192 32.1515 15.3607 32.1437 15.6383 32.4114C17.9721 34.6679 21.0453 35.9391 24.2915 35.991C24.6769 35.9968 24.9845 36.3148 24.9784 36.6998C24.9724 37.0816 24.6612 37.387 24.2805 37.387Z" fill="#F8FBFC"/>
<path d="M15.1531 33.6111C14.9786 33.6111 14.8035 33.5458 14.6678 33.4151C11.878 30.7191 10.3421 27.1055 10.3421 23.2404C10.3421 22.8548 10.6545 22.5425 11.0401 22.5425C11.4255 22.5425 11.738 22.8548 11.738 23.2404C11.738 26.7238 13.1231 29.9807 15.6384 32.4113C15.9153 32.6792 15.9231 33.1209 15.6547 33.3981C15.5179 33.54 15.3357 33.6111 15.1531 33.6111Z" fill="#F8FBFC"/>
<path d="M24.5002 37.3983C24.4423 37.3983 24.3858 37.3944 24.329 37.3908L24.2653 37.3869C23.8797 37.3782 23.5743 37.0586 23.5825 36.6736C23.5914 36.2937 23.902 35.991 24.28 35.991H24.2957C24.3416 35.9919 24.3862 35.9954 24.4311 35.9985L24.5002 36.0024C24.8856 36.0024 25.1982 36.3148 25.1982 36.7004C25.1982 37.0859 24.8856 37.3983 24.5002 37.3983Z" fill="#F8FBFC"/>
<path d="M24.5003 37.3983C24.1147 37.3983 23.8023 37.0859 23.8023 36.7004C23.8023 36.3148 24.1147 36.0024 24.5003 36.0024L24.5688 35.9985C24.6137 35.9954 24.6583 35.9919 24.7042 35.991C25.0675 35.9919 25.4085 36.2877 25.4174 36.6736C25.4256 37.0586 25.1202 37.3782 24.7348 37.3869L24.6715 37.3908C24.6149 37.3944 24.5582 37.3983 24.5003 37.3983Z" fill="#F8FBFC"/>
<path d="M33.3638 13.8268C33.2007 13.8268 33.0367 13.7698 32.9042 13.6533C30.6335 11.6614 27.7229 10.5376 24.7082 10.4892C24.323 10.4828 24.0154 10.1652 24.0214 9.77999C24.028 9.39441 24.3361 9.09946 24.731 9.09326C28.0762 9.1471 31.3059 10.3943 33.8247 12.6044C34.1146 12.8585 34.1429 13.2994 33.889 13.589C33.7509 13.7462 33.558 13.8268 33.3638 13.8268Z" fill="#F8FBFC"/>
<path d="M15.6362 13.8268C15.4421 13.8268 15.249 13.7462 15.1112 13.589C14.8571 13.2994 14.8853 12.8585 15.1755 12.6044C17.694 10.3943 20.9238 9.1471 24.2691 9.09326C24.6725 9.07796 24.9719 9.39422 24.9785 9.77999C24.9845 10.1652 24.677 10.4828 24.292 10.4892C21.277 10.5376 18.3664 11.6614 16.0959 13.6533C15.9633 13.7698 15.7992 13.8268 15.6362 13.8268Z" fill="#F8FBFC"/>
<path d="M24.7195 10.4891H24.709C24.6612 10.4883 24.6143 10.4852 24.5668 10.4819L24.5002 10.4782C24.1146 10.4782 23.8023 10.1657 23.8023 9.78027C23.8023 9.39468 24.1146 9.0823 24.5002 9.0823C24.5564 9.0823 24.6114 9.0854 24.6666 9.08947L24.7299 9.09315C25.1153 9.09877 25.4228 9.41599 25.4174 9.80138C25.4114 10.1835 25.1002 10.4891 24.7195 10.4891Z" fill="#F8FBFC"/>
<path d="M33.8475 33.6111C33.6649 33.6111 33.4827 33.54 33.3458 33.3981C33.0775 33.1209 33.0851 32.6792 33.3622 32.4113C35.8769 29.9813 37.262 26.724 37.262 23.2404C37.262 19.5773 35.6736 16.083 32.9042 13.6533C32.6141 13.3992 32.5856 12.9582 32.8399 12.6685C33.0932 12.379 33.5346 12.3492 33.8247 12.6042C36.8962 15.2987 38.6579 19.1752 38.6579 23.2404C38.6579 27.1059 37.1218 30.7193 34.3329 33.4151C34.1971 33.5458 34.0218 33.6111 33.8475 33.6111Z" fill="#F8FBFC"/>
<path d="M19.6407 16.0602C19.5262 16.0602 19.41 16.0321 19.3026 15.9723C18.9656 15.7854 18.8442 15.3607 19.031 15.0235C20.2591 12.8103 22.0111 10.8607 24.0973 9.38538C24.4102 9.16267 24.8483 9.23684 25.07 9.55232C25.2926 9.86683 25.2178 10.3026 24.9033 10.5249C22.987 11.8802 21.3786 13.67 20.2515 15.7009C20.1239 15.9306 19.8861 16.0602 19.6407 16.0602Z" fill="#F8FBFC"/>
<path d="M24.5008 10.6533C24.2816 10.6533 24.0662 10.5504 23.9299 10.3577C23.708 10.0428 23.7827 9.60748 24.0978 9.38515L24.1753 9.32647C24.2239 9.28871 24.2729 9.25094 24.3236 9.21608C24.6416 8.99686 25.0756 9.07761 25.2943 9.39522C25.5129 9.71283 25.4327 10.1474 25.1153 10.3663C25.0863 10.386 25.0586 10.4079 25.0307 10.4294C24.9885 10.4623 24.9464 10.4948 24.9027 10.5252C24.7805 10.6118 24.6399 10.6533 24.5008 10.6533Z" fill="#F8FBFC"/>
<path d="M19.2836 31.1042C19.0262 31.1042 18.7781 30.9611 18.6571 30.7142C17.4945 28.3533 16.905 25.8387 16.905 23.2404C16.905 22.855 17.2176 22.5424 17.6029 22.5424C17.9885 22.5424 18.3009 22.855 18.3009 23.2404C18.3009 25.623 18.842 27.9301 19.9089 30.0976C20.0797 30.4437 19.9374 30.8618 19.5911 31.0322C19.4925 31.081 19.3872 31.1042 19.2836 31.1042Z" fill="#F8FBFC"/>
<path d="M24.7189 37.387C24.5843 37.387 24.4485 37.3482 24.3285 37.2669C24.2746 37.2303 24.2227 37.1912 24.1714 37.1513L24.0978 37.0957C23.7827 36.8734 23.708 36.4376 23.9299 36.1229C24.153 35.8084 24.588 35.7331 24.9027 35.9548C24.9453 35.985 24.9861 36.0166 25.027 36.0482C25.0541 36.0695 25.0816 36.0914 25.1103 36.1109C25.43 36.3268 25.5135 36.7605 25.2974 37.0798C25.1628 37.2795 24.9429 37.387 24.7189 37.387Z" fill="#F8FBFC"/>
<path d="M24.4997 37.2233C24.3601 37.2233 24.2195 37.1819 24.0973 37.0951C21.7886 35.4625 19.9074 33.2561 18.6565 30.7141C18.4865 30.3684 18.6294 29.9497 18.9751 29.7795C19.3206 29.6093 19.7389 29.7522 19.9095 30.0979C21.0573 32.4317 22.7842 34.457 24.9033 35.9554C25.2178 36.1781 25.2926 36.6137 25.07 36.9284C24.9343 37.1209 24.7184 37.2233 24.4997 37.2233Z" fill="#F8FBFC"/>
<path d="M17.603 23.9383C17.2176 23.9383 16.905 23.6259 16.905 23.2403C16.905 20.3724 17.64 17.5311 19.0311 15.0236C19.217 14.6866 19.6429 14.565 19.9798 14.7517C20.317 14.9388 20.4384 15.3635 20.2515 15.7008C18.9755 18.0015 18.301 20.6086 18.301 23.2403C18.301 23.6259 17.9886 23.9383 17.603 23.9383Z" fill="#F8FBFC"/>
<path d="M19.6413 16.0604C19.5623 16.0604 19.4821 16.0469 19.4031 16.0184C17.8718 15.4628 16.4584 14.6744 15.201 13.6751C14.8996 13.4351 14.8493 12.9963 15.0892 12.6944C15.3298 12.3926 15.768 12.3431 16.0703 12.5824C17.2087 13.4874 18.4902 14.202 19.8795 14.7059C20.2417 14.8376 20.4287 15.2377 20.2972 15.6003C20.1942 15.884 19.9266 16.0604 19.6413 16.0604Z" fill="#F8FBFC"/>
<path d="M29.3587 16.0604C29.0734 16.0604 28.8059 15.884 28.7027 15.6003C28.5714 15.2377 28.7583 14.8376 29.1205 14.7059C30.5098 14.202 31.7913 13.4874 32.9296 12.5824C33.2323 12.3427 33.6708 12.3926 33.9107 12.6944C34.1507 12.9963 34.1003 13.4351 33.799 13.6751C32.5415 14.6744 31.1282 15.4628 29.5969 16.0184C29.5179 16.0469 29.4377 16.0604 29.3587 16.0604Z" fill="#F8FBFC"/>
<path d="M24.5003 16.9271C24.1147 16.9271 23.8023 16.6147 23.8023 16.2292C23.8023 15.8438 24.1147 15.5312 24.5003 15.5312C26.0565 15.5312 27.6111 15.2537 29.1209 14.706C29.4826 14.5751 29.8839 14.7618 30.0148 15.1241C30.1461 15.4867 29.959 15.887 29.5963 16.0185C27.9337 16.6215 26.219 16.9271 24.5003 16.9271Z" fill="#F8FBFC"/>
<path d="M24.5002 16.9271C22.7811 16.9271 21.0662 16.6215 19.4036 16.0185C19.0409 15.887 18.8538 15.4867 18.9853 15.1241C19.1162 14.7618 19.5175 14.5751 19.8791 14.706C21.3889 15.2537 22.944 15.5312 24.5002 15.5312C24.8856 15.5312 25.1982 15.8438 25.1982 16.2292C25.1982 16.6147 24.8856 16.9271 24.5002 16.9271Z" fill="#F8FBFC"/>
<path d="M33.847 33.6111C33.6849 33.6111 33.5218 33.5547 33.3896 33.4399C32.221 32.4237 30.899 31.6214 29.4613 31.0555C29.1024 30.9141 28.9264 30.509 29.0676 30.1501C29.2082 29.7917 29.6135 29.616 29.9727 29.7566C31.5585 30.3808 33.0166 31.2658 34.3056 32.3864C34.5961 32.6393 34.6273 33.0803 34.3743 33.3711C34.2362 33.5297 34.0422 33.6111 33.847 33.6111Z" fill="#F8FBFC"/>
<path d="M29.7171 31.1042C29.632 31.1042 29.5451 31.0884 29.4612 31.0554C27.8602 30.4255 26.1912 30.1061 24.5004 30.1061C24.1148 30.1061 23.8022 29.7935 23.8022 29.408C23.8022 29.0226 24.1148 28.7102 24.5004 28.7102C26.3667 28.7102 28.2082 29.0621 29.9727 29.7565C30.331 29.8975 30.5076 30.3029 30.3664 30.6613C30.2585 30.9363 29.9952 31.1042 29.7171 31.1042Z" fill="#F8FBFC"/>
<path d="M19.2831 31.1042C19.005 31.1042 18.7416 30.9363 18.6335 30.6613C18.4923 30.3029 18.6692 29.8975 19.0272 29.7565C20.7919 29.0621 22.6333 28.7102 24.5002 28.7102C24.8858 28.7102 25.1983 29.0226 25.1983 29.408C25.1983 29.7935 24.8858 30.1061 24.5002 30.1061C22.8089 30.1061 21.1397 30.4255 19.5387 31.0554C19.4549 31.0884 19.3681 31.1042 19.2831 31.1042Z" fill="#F8FBFC"/>
<path d="M15.1536 33.6111C14.9584 33.6111 14.7644 33.5297 14.6263 33.3711C14.3733 33.0803 14.4043 32.6393 14.695 32.3864C15.9829 31.2664 17.4406 30.3814 19.0273 29.7566C19.3855 29.6158 19.7913 29.7913 19.9325 30.1501C20.0736 30.5086 19.8976 30.9141 19.5387 31.0555C18.1002 31.622 16.7786 32.4239 15.611 33.4399C15.4792 33.5547 15.3155 33.6111 15.1536 33.6111Z" fill="#F8FBFC"/>
<path d="M31.397 23.9383C31.0115 23.9383 30.6991 23.6259 30.6991 23.2403C30.6991 20.6086 30.0246 18.0015 28.7485 15.7008C28.5614 15.3635 28.6831 14.9388 29.0202 14.7517C29.3576 14.565 29.7823 14.6866 29.969 15.0236C31.3601 17.5311 32.095 20.3724 32.095 23.2403C32.095 23.6259 31.7824 23.9383 31.397 23.9383Z" fill="#F8FBFC"/>
<path d="M24.4997 10.6533C24.3624 10.6533 24.2233 10.6126 24.1017 10.5283C24.0548 10.4956 24.0101 10.4613 23.9648 10.4265C23.9386 10.406 23.9125 10.3848 23.8846 10.3663C23.5674 10.1474 23.487 9.71283 23.7059 9.39522C23.9239 9.07761 24.3581 8.99724 24.6763 9.21608C24.7255 9.25017 24.7729 9.28638 24.8204 9.32318L24.899 9.38225C25.2151 9.60244 25.2931 10.0372 25.0733 10.3539C24.9376 10.5487 24.7207 10.6533 24.4997 10.6533Z" fill="#F8FBFC"/>
<path d="M24.2811 37.387C24.057 37.387 23.8372 37.2795 23.7026 37.0798C23.4865 36.7605 23.5701 36.3268 23.8897 36.1109C23.9168 36.0923 23.9429 36.0716 23.9693 36.0515C24.0128 36.0178 24.0564 35.9839 24.1017 35.9523C24.419 35.7325 24.853 35.8098 25.0733 36.1268C25.2931 36.443 25.2151 36.8782 24.8988 37.0984L24.8243 37.1546C24.7745 37.1933 24.7238 37.2315 24.6715 37.2669C24.5514 37.3482 24.4157 37.387 24.2811 37.387Z" fill="#F8FBFC"/>
<path d="M29.7165 31.1042C29.6129 31.1042 29.5075 31.081 29.409 31.0322C29.0627 30.8618 28.9203 30.4437 29.0912 30.0976C30.158 27.9301 30.699 25.623 30.699 23.2404C30.699 22.855 31.0115 22.5424 31.3971 22.5424C31.7825 22.5424 32.0949 22.855 32.0949 23.2404C32.0949 25.8387 31.5054 28.3533 30.3428 30.7142C30.2218 30.9611 29.9737 31.1042 29.7165 31.1042Z" fill="#F8FBFC"/>
<path d="M24.5008 37.2233C24.2822 37.2233 24.0662 37.1209 23.9305 36.9284C23.708 36.6137 23.7827 36.1781 24.0974 35.9554C26.2157 34.4568 27.9426 32.4313 29.0904 30.0979C29.2611 29.7516 29.6794 29.6093 30.0251 29.7795C30.3707 29.9497 30.5137 30.3684 30.3434 30.7141C29.0926 33.2559 27.2113 35.4625 24.9032 37.0951C24.781 37.1819 24.6404 37.2233 24.5008 37.2233Z" fill="#F8FBFC"/>
<path d="M29.3592 16.0602C29.1139 16.0602 28.8757 15.9306 28.7486 15.7009C27.6225 13.6706 26.0141 11.8809 24.0974 10.5249C23.7827 10.3026 23.708 9.86683 23.9305 9.55232C24.153 9.23684 24.5897 9.16267 24.9032 9.38538C26.9902 10.8615 28.7418 12.8111 29.9689 15.0235C30.1558 15.3609 30.0344 15.7856 29.6974 15.9726C29.5899 16.0321 29.4739 16.0602 29.3592 16.0602Z" fill="#F8FBFC"/>
<path d="M17.603 23.9383H11.0399C10.6546 23.9383 10.342 23.6259 10.342 23.2403C10.342 22.8549 10.6546 22.5424 11.0399 22.5424H17.603C17.9886 22.5424 18.301 22.8549 18.301 23.2403C18.301 23.6259 17.9886 23.9383 17.603 23.9383Z" fill="#F8FBFC"/>
<path d="M31.397 23.9383H24.5003C24.1147 23.9383 23.8023 23.6259 23.8023 23.2403C23.8023 22.8549 24.1147 22.5424 24.5003 22.5424H31.397C31.7824 22.5424 32.095 22.8549 32.095 23.2403C32.095 23.6259 31.7824 23.9383 31.397 23.9383Z" fill="#F8FBFC"/>
<path d="M24.5003 23.9383H17.6029C17.2176 23.9383 16.905 23.6259 16.905 23.2403C16.905 22.8549 17.2176 22.5424 17.6029 22.5424H24.5003C24.8857 22.5424 25.1982 22.8549 25.1982 23.2403C25.1982 23.6259 24.8857 23.9383 24.5003 23.9383Z" fill="#F8FBFC"/>
<path d="M37.5625 23.9383H31.3971C31.0115 23.9383 30.6991 23.6259 30.6991 23.2403C30.6991 22.8549 31.0115 22.5424 31.3971 22.5424H37.5625C37.9479 22.5424 38.2605 22.8549 38.2605 23.2403C38.2605 23.6259 37.9479 23.9383 37.5625 23.9383Z" fill="#F8FBFC"/>
<path d="M24.5003 16.9271C24.1147 16.9271 23.8023 16.6147 23.8023 16.2292V9.95524C23.8023 9.56966 24.1147 9.25728 24.5003 9.25728C24.8856 9.25728 25.1982 9.56966 25.1982 9.95524V16.2292C25.1982 16.6147 24.8856 16.9271 24.5003 16.9271Z" fill="#F8FBFC"/>
<path d="M24.5003 23.9383C24.1147 23.9383 23.8023 23.6259 23.8023 23.2403V16.2291C23.8023 15.8437 24.1147 15.5312 24.5003 15.5312C24.8856 15.5312 25.1982 15.8437 25.1982 16.2291V23.2403C25.1982 23.6259 24.8856 23.9383 24.5003 23.9383Z" fill="#F8FBFC"/>
<path d="M24.5003 37.2233C24.1147 37.2233 23.8023 36.9109 23.8023 36.5254V29.408C23.8023 29.0225 24.1147 28.7101 24.5003 28.7101C24.8856 28.7101 25.1982 29.0225 25.1982 29.408V36.5254C25.1982 36.9109 24.8856 37.2233 24.5003 37.2233Z" fill="#F8FBFC"/>
<path d="M24.5003 10.6533C24.1147 10.6533 23.8023 10.3407 23.8023 9.9553V9.78023C23.8023 9.39464 24.1147 9.08226 24.5003 9.08226C24.8856 9.08226 25.1982 9.39464 25.1982 9.78023V9.9553C25.1982 10.3407 24.8856 10.6533 24.5003 10.6533Z" fill="#F8FBFC"/>
<path d="M24.5003 30.1061C24.1147 30.1061 23.8023 29.7938 23.8023 29.4082V23.2404C23.8023 22.855 24.1147 22.5424 24.5003 22.5424C24.8856 22.5424 25.1982 22.855 25.1982 23.2404V29.4082C25.1982 29.7938 24.8856 30.1061 24.5003 30.1061Z" fill="#F8FBFC"/>
<path d="M24.5003 37.3983C24.1147 37.3983 23.8023 37.0859 23.8023 36.7004V36.5253C23.8023 36.1399 24.1147 35.8275 24.5003 35.8275C24.8856 35.8275 25.1982 36.1399 25.1982 36.5253V36.7004C25.1982 37.0859 24.8856 37.3983 24.5003 37.3983Z" fill="#F8FBFC"/>
<path d="M43.0749 42.3861L35.9969 36.5604L37.1506 45.6548L39.235 44.5044L41.1809 48.0314L42.9364 47.0631L40.9905 43.5361L43.0749 42.3861Z" fill="#9DA4B1"/>
<path d="M39.2349 43.5362C39.3252 43.5362 39.4156 43.5486 39.5037 43.5741C39.7503 43.6454 39.9587 43.812 40.0828 44.0368L41.561 46.7159L41.6207 46.683L40.1426 44.0039C39.8845 43.5358 40.0545 42.9467 40.5228 42.6883L41.3583 42.2272L37.2644 38.8579L37.9318 44.1177L38.767 43.6566C38.9115 43.577 39.0728 43.5362 39.2349 43.5362ZM41.1818 49C40.8404 49 40.5094 48.8191 40.333 48.4992L38.855 45.8202L37.6184 46.5025C37.3376 46.6576 36.9981 46.6635 36.7119 46.5178C36.4258 46.3726 36.2302 46.095 36.19 45.7765L35.0363 36.682C34.9865 36.2885 35.1816 35.9043 35.5292 35.7126C35.8764 35.5208 36.3058 35.5603 36.6123 35.8127L43.6904 41.6385C43.9381 41.8424 44.0686 42.1557 44.0391 42.4753C44.0095 42.7948 43.8236 43.0789 43.5426 43.2339L42.306 43.9161L43.7843 46.5955C43.9084 46.8203 43.9381 47.0853 43.8668 47.332C43.7955 47.5787 43.629 47.7869 43.4041 47.911L41.6486 48.8793C41.5002 48.9613 41.3399 49 41.1818 49Z" fill="#F8FBFC"/>
<path d="M43.0749 42.3861L35.9969 36.5604L37.1506 45.6548L39.235 44.5044L41.1809 48.0314L42.9364 47.0631L40.9905 43.5361L43.0749 42.3861Z" fill="#9DA4B1"/>
</g>
</svg>
